<svg width="436" height="387" viewBox="0 0 436 387" fill="none" xmlns="http://www.w3.org/2000/svg">
<path d="M254.15 98C261.076 103.371 268.553 108.151 275.602 113.251C276.04 115.34 275.98 129.219 275.906 132.474C275.662 143.346 276.292 155.284 275.817 166C270.296 163.022 264.942 159.784 259.515 156.659C257.691 155.609 255.861 154.573 254.158 153.353C253.862 140.89 254.316 128.279 254.09 115.802C253.982 109.912 253.938 103.877 254.15 98Z" fill="black"/>
<path d="M228.218 55C229.654 55.6851 237.921 61.2444 239.763 62.4993C243.784 65.2373 250.141 68.6231 253.692 71.329C254.231 76.2769 253.899 87.2628 253.896 92.7604C251.389 90.9811 248.678 89.1263 246.343 87.185C243.986 88.3203 240.286 90.6842 237.768 92.0805C237.302 103.456 237.648 117.006 237.637 128.492V145C235.234 143.42 230.915 141.223 228.245 139.779C227.76 111.965 228.13 82.8894 228.218 55Z" fill="#288445"/>
<path d="M222.568 68C222.771 68.0679 222.815 68.1521 222.997 68.3114L223 137.648C221.651 137.127 221.18 136.848 219.952 136.125C218.442 137.161 216.77 138.082 215.175 139C215.373 136.575 215.21 131.821 215.205 129.223L215.178 104.388C215.173 100.721 215.366 94.4177 215 91.0034C213.91 90.9607 208.508 94.6082 207.054 95.4935C206.978 90.1176 206.982 84.741 207.066 79.3653C211.502 76.3043 218.449 71.3615 222.568 68Z" fill="#288445"/>
<path d="M245.951 93C247.114 93.3801 248.975 94.8934 250 95.6697C249.843 112.005 249.958 128.336 249.421 144.673C249.36 146.593 249.57 148.781 249.328 150.647L248.848 151C246.888 150.035 245.096 148.986 243.214 147.904C242.638 134.813 243.445 121.267 243.121 108.124C243.015 103.835 243.015 98.9514 243.296 94.678C244.077 94.1451 245.133 93.515 245.951 93Z" fill="black"/>
<path d="M196.374 107C197.036 107.83 196.692 118.171 196.747 119.97C197.043 129.73 196.339 139.967 197 149.695C195.442 150.726 193.158 152.018 191.511 153C191.424 152.977 191.188 152.774 191.103 152.708L191 110.61C192.8 109.418 194.592 108.215 196.374 107Z" fill="black"/>
<path d="M203.619 103L203.776 103.119C204.364 104.317 203.608 141.726 203.604 146.261C202.067 147.159 200.026 148.168 198.406 149C197.929 146.33 198.132 137.925 198.124 134.804L198 106.375L203.619 103Z" fill="black"/>
<path d="M209.711 99C210.252 100.745 209.865 137.456 209.881 141.772C208.791 142.523 207.387 143.312 206.231 144C205.988 130.068 206.548 115.512 206 101.663C206.883 100.893 208.696 99.7076 209.711 99Z" fill="black"/>
<path d="M189.625 112C190.185 112.617 189.938 149.29 189.986 153.768L186.41 156C186.379 155.972 186.343 155.95 186.317 155.917C185.774 155.212 186.085 118.404 186.12 114.38C187.294 113.594 188.462 112.801 189.625 112Z" fill="black"/>
<path d="M229 68V140L223 136.446L223.404 68H229ZM223.803 135.921L228.2 138.527V68.8798H224.199L223.803 135.921Z" fill="black"/>
<path d="M223 68H229V137H223V68Z" fill="black"/>
<path d="M228 137.4V139L225 137L228 137.4Z" fill="black"/>
<path d="M192 305V306H51V305H192Z" fill="#F52C22"/>
<path d="M402 304V305H261V304H402Z" fill="#F52C22"/>
<path d="M235.054 310.789V310.343C235.831 310.343 236.284 310.201 236.413 309.918V299.23C236.284 298.947 235.831 298.805 235.054 298.805V298.359H240.016C241.957 298.359 243.554 298.94 244.805 300.101C246.07 301.249 246.703 302.729 246.703 304.542C246.703 306.369 246.085 307.871 244.848 309.047C243.625 310.208 242.101 310.789 240.275 310.789H235.054ZM239.153 298.975V310.067H240.275C241.253 310.067 242.079 309.613 242.755 308.707C243.446 307.8 243.791 306.419 243.791 304.563C243.791 302.694 243.431 301.298 242.712 300.377C241.993 299.443 241.094 298.975 240.016 298.975H239.153Z" fill="#F52C22"/>
<path d="M219.61 298.338H230.762V300.399H230.309C230.309 299.719 230.058 299.273 229.554 299.06H226.556V309.897C226.685 310.18 227.138 310.322 227.915 310.322V310.768H222.457V310.322C223.234 310.322 223.687 310.18 223.816 309.897V299.06H220.818C220.314 299.273 220.063 299.719 220.063 300.399H219.61V298.338Z" fill="#F52C22"/>
<path d="M207.137 310.768V310.322C207.914 310.322 208.367 310.18 208.496 309.897V299.209C208.367 298.925 207.914 298.784 207.137 298.784V298.338H212.595V298.784C211.818 298.784 211.365 298.925 211.236 299.209V310.045H215.723C216.082 309.89 216.406 309.443 216.694 308.707H217.125L216.607 310.768H207.137Z" fill="#F52C22"/>
<path d="M134 340V339H243V340H134Z" fill="#05188D"/>
<path d="M223.489 343.08L203.778 345.289L203.726 344.849L203.675 344.409L223.376 342.202L242.302 339.1L242.449 339.974L223.512 343.077L223.489 343.08Z" fill="#05188D"/>
<path d="M343 345V346H204V345H343Z" fill="#05188D"/>
<path d="M353.513 324.58H349.447C349.427 324.874 349.417 325.133 349.417 325.359C349.432 326.089 349.648 326.674 350.066 327.115C350.484 327.551 351.044 327.769 351.745 327.769C351.934 327.769 352.11 327.749 352.275 327.71C352.439 327.666 352.573 327.617 352.678 327.563C352.787 327.509 352.899 327.431 353.013 327.328C353.128 327.225 353.21 327.144 353.259 327.086C353.314 327.022 353.386 326.929 353.476 326.806C353.565 326.679 353.625 326.598 353.655 326.564C353.774 326.588 353.871 326.642 353.946 326.726C353.697 327.382 353.312 327.874 352.789 328.203C352.267 328.526 351.7 328.688 351.088 328.688C350.785 328.688 350.489 328.648 350.2 328.57C349.917 328.497 349.641 328.374 349.372 328.203C349.104 328.031 348.87 327.821 348.671 327.571C348.472 327.316 348.313 327 348.193 326.623C348.074 326.24 348.014 325.819 348.014 325.359C348.014 324.325 348.335 323.472 348.977 322.801C349.619 322.13 350.407 321.794 351.342 321.794C351.755 321.794 352.113 321.853 352.416 321.971C352.725 322.083 352.964 322.238 353.133 322.434C353.307 322.63 353.434 322.845 353.513 323.08C353.598 323.311 353.64 323.558 353.64 323.823C353.64 324.068 353.598 324.32 353.513 324.58ZM351.163 322.272C350.82 322.272 350.494 322.421 350.186 322.72C349.882 323.019 349.663 323.472 349.529 324.08H352.215C352.265 323.894 352.29 323.732 352.29 323.595C352.29 323.213 352.2 322.897 352.021 322.647C351.842 322.397 351.556 322.272 351.163 322.272Z" fill="#288445"/>
<path d="M341.102 322.426C342.067 322.328 342.907 322.127 343.624 321.824C343.748 321.873 343.835 321.936 343.885 322.015V323.279C344.069 322.936 344.342 322.603 344.706 322.279C345.074 321.956 345.457 321.794 345.855 321.794C346.153 321.794 346.394 321.882 346.578 322.059C346.767 322.23 346.862 322.468 346.862 322.772C346.862 323.061 346.775 323.286 346.601 323.448C346.427 323.61 346.208 323.69 345.944 323.69C345.7 323.69 345.499 323.614 345.34 323.463C345.186 323.306 345.101 323.1 345.086 322.845C344.877 322.933 344.638 323.129 344.37 323.433C344.106 323.737 343.944 324.038 343.885 324.337C343.885 325.43 343.905 326.473 343.944 327.468C343.949 327.595 343.997 327.705 344.086 327.798C344.176 327.887 344.308 327.955 344.482 328.004C344.656 328.053 344.8 328.09 344.914 328.114C345.029 328.134 345.178 328.154 345.362 328.173C345.392 328.232 345.407 328.293 345.407 328.357C345.407 328.406 345.392 328.46 345.362 328.519C344.616 328.489 343.877 328.475 343.146 328.475C342.539 328.475 341.908 328.489 341.251 328.519C341.231 328.44 341.221 328.386 341.221 328.357C341.221 328.332 341.231 328.271 341.251 328.173C341.415 328.154 341.55 328.134 341.654 328.114C341.758 328.09 341.888 328.053 342.042 328.004C342.196 327.955 342.313 327.887 342.393 327.798C342.472 327.705 342.514 327.595 342.519 327.468C342.539 326.983 342.549 326.395 342.549 325.704C342.549 325.474 342.547 325.082 342.542 324.528C342.537 323.975 342.534 323.489 342.534 323.073C342.251 322.902 341.773 322.801 341.102 322.772C341.082 322.693 341.072 322.632 341.072 322.588C341.072 322.559 341.082 322.505 341.102 322.426Z" fill="#288445"/>
<path d="M334.211 323.646C334.211 323.107 334.46 322.664 334.957 322.316C335.46 321.968 336.052 321.794 336.733 321.794C337.569 321.794 338.156 321.958 338.494 322.287C338.837 322.615 339.009 323.169 339.009 323.948V326.997C339.009 327.272 339.111 327.409 339.315 327.409C339.479 327.409 339.688 327.213 339.941 326.821C340.12 326.836 340.242 326.914 340.307 327.056C340.272 327.105 340.212 327.193 340.128 327.321C340.043 327.448 339.981 327.539 339.941 327.593C339.902 327.647 339.839 327.73 339.755 327.843C339.67 327.95 339.601 328.031 339.546 328.085C339.496 328.139 339.427 328.203 339.337 328.276C339.252 328.35 339.173 328.406 339.098 328.445C339.029 328.479 338.947 328.509 338.852 328.533C338.758 328.563 338.663 328.577 338.569 328.577C338.32 328.577 338.113 328.489 337.949 328.313C337.79 328.137 337.696 327.865 337.666 327.497C337.661 327.502 337.584 327.573 337.434 327.71C337.285 327.847 337.181 327.941 337.121 327.99C337.066 328.034 336.959 328.114 336.8 328.232C336.646 328.345 336.514 328.426 336.405 328.475C336.295 328.524 336.159 328.57 335.995 328.614C335.83 328.663 335.669 328.688 335.51 328.688C335.256 328.688 335.03 328.653 334.831 328.585C334.637 328.516 334.485 328.433 334.375 328.335C334.266 328.237 334.177 328.124 334.107 327.997C334.037 327.865 333.99 327.745 333.965 327.637C333.945 327.529 333.935 327.421 333.935 327.313C333.935 326.985 333.99 326.708 334.099 326.483C334.214 326.258 334.423 326.047 334.726 325.851C335.035 325.655 335.413 325.481 335.86 325.329C336.308 325.177 336.91 325.006 337.666 324.815V323.793C337.666 323.298 337.554 322.929 337.33 322.684C337.111 322.439 336.815 322.316 336.442 322.316C336.109 322.316 335.828 322.382 335.599 322.515C335.375 322.642 335.238 322.791 335.189 322.963C335.676 323.036 335.92 323.298 335.92 323.749C335.92 323.955 335.845 324.136 335.696 324.293C335.547 324.45 335.338 324.528 335.069 324.528C334.846 324.528 334.647 324.452 334.472 324.3C334.298 324.144 334.211 323.926 334.211 323.646ZM337.666 326.821V325.285C337.208 325.388 336.83 325.501 336.532 325.623C336.233 325.741 336.004 325.871 335.845 326.013C335.691 326.155 335.584 326.302 335.524 326.454C335.465 326.601 335.435 326.772 335.435 326.968C335.435 327.213 335.507 327.407 335.651 327.549C335.801 327.686 335.982 327.754 336.196 327.754C336.693 327.754 337.183 327.443 337.666 326.821Z" fill="#288445"/>
<path d="M328.164 317.429C328.557 317.429 328.947 317.456 329.335 317.51C329.728 317.559 330.104 317.62 330.462 317.694C330.825 317.762 331.168 317.831 331.492 317.899C331.815 317.968 332.106 318.017 332.364 318.046C332.305 318.223 332.275 318.534 332.275 318.98C332.275 319.847 332.407 320.599 332.67 321.236C332.641 321.324 332.549 321.378 332.394 321.397L332.074 320.721C331.914 320.383 331.723 320.05 331.499 319.722C331.275 319.389 331.007 319.092 330.693 318.833C330.38 318.568 330.014 318.355 329.596 318.193C329.184 318.032 328.706 317.951 328.164 317.951C327.696 317.951 327.281 318.027 326.918 318.179C326.555 318.33 326.237 318.536 325.963 318.796C325.689 319.051 325.458 319.35 325.269 319.693C325.08 320.031 324.926 320.391 324.807 320.773C324.692 321.155 324.608 321.547 324.553 321.949C324.503 322.35 324.478 322.74 324.478 323.117C324.478 323.744 324.56 324.344 324.724 324.918C324.894 325.491 325.155 325.998 325.508 326.439C325.861 326.875 326.309 327.223 326.851 327.482C327.398 327.742 328.05 327.872 328.806 327.872C330.253 327.872 331.347 327.426 332.088 326.534C332.168 326.534 332.233 326.557 332.282 326.601C332.337 326.645 332.364 326.699 332.364 326.762C332.126 327.11 331.835 327.411 331.492 327.666C331.153 327.921 330.793 328.132 330.41 328.298C330.027 328.46 329.639 328.58 329.246 328.658C328.858 328.737 328.497 328.776 328.164 328.776C327.801 328.776 327.408 328.737 326.985 328.658C326.567 328.585 326.147 328.46 325.724 328.284C325.306 328.107 324.904 327.877 324.516 327.593C324.133 327.304 323.792 326.951 323.493 326.534C323.195 326.113 322.956 325.621 322.777 325.057C322.598 324.494 322.509 323.847 322.509 323.117C322.509 322.382 322.598 321.733 322.777 321.17C322.956 320.601 323.195 320.107 323.493 319.685C323.797 319.264 324.142 318.911 324.53 318.627C324.923 318.338 325.329 318.105 325.747 317.929C326.164 317.747 326.582 317.62 327 317.547C327.418 317.468 327.806 317.429 328.164 317.429Z" fill="#288445"/>
<path d="M309.175 324.58H305.109C305.089 324.874 305.079 325.133 305.079 325.359C305.094 326.089 305.31 326.674 305.728 327.115C306.146 327.551 306.706 327.769 307.407 327.769C307.596 327.769 307.773 327.749 307.937 327.71C308.101 327.666 308.235 327.617 308.34 327.563C308.449 327.509 308.561 327.431 308.675 327.328C308.79 327.225 308.872 327.144 308.922 327.086C308.976 327.022 309.048 326.929 309.138 326.806C309.227 326.679 309.287 326.598 309.317 326.564C309.436 326.588 309.533 326.642 309.608 326.726C309.359 327.382 308.974 327.874 308.452 328.203C307.929 328.526 307.362 328.688 306.75 328.688C306.447 328.688 306.151 328.648 305.863 328.57C305.579 328.497 305.303 328.374 305.034 328.203C304.766 328.031 304.532 327.821 304.333 327.571C304.134 327.316 303.975 327 303.856 326.623C303.736 326.24 303.677 325.819 303.677 325.359C303.677 324.325 303.997 323.472 304.639 322.801C305.281 322.13 306.069 321.794 307.004 321.794C307.417 321.794 307.775 321.853 308.078 321.971C308.387 322.083 308.626 322.238 308.795 322.434C308.969 322.63 309.096 322.845 309.175 323.08C309.26 323.311 309.302 323.558 309.302 323.823C309.302 324.068 309.26 324.32 309.175 324.58ZM306.825 322.272C306.482 322.272 306.156 322.421 305.848 322.72C305.544 323.019 305.325 323.472 305.191 324.08H307.877C307.927 323.894 307.952 323.732 307.952 323.595C307.952 323.213 307.862 322.897 307.683 322.647C307.504 322.397 307.218 322.272 306.825 322.272Z" fill="#288445"/>
<path d="M302.158 326.564C302.278 326.588 302.374 326.642 302.449 326.726C302.2 327.382 301.815 327.874 301.293 328.203C300.77 328.526 300.203 328.688 299.592 328.688C299.288 328.688 298.992 328.648 298.704 328.57C298.415 328.497 298.134 328.374 297.861 328.203C297.592 328.031 297.356 327.821 297.152 327.571C296.953 327.316 296.791 327 296.667 326.623C296.547 326.24 296.488 325.819 296.488 325.359C296.488 324.295 296.819 323.436 297.48 322.779C298.142 322.123 298.967 321.794 299.957 321.794C300.653 321.794 301.221 321.944 301.658 322.243C302.101 322.537 302.322 322.914 302.322 323.374C302.322 323.634 302.235 323.85 302.061 324.021C301.887 324.193 301.673 324.278 301.419 324.278C301.151 324.278 300.935 324.202 300.77 324.05C300.606 323.894 300.524 323.712 300.524 323.507C300.524 323.134 300.716 322.899 301.099 322.801C301.064 322.688 300.952 322.573 300.763 322.456C300.574 322.333 300.305 322.272 299.957 322.272C299.778 322.272 299.609 322.294 299.45 322.338C299.291 322.377 299.119 322.463 298.935 322.595C298.756 322.728 298.602 322.902 298.472 323.117C298.348 323.333 298.244 323.634 298.159 324.021C298.074 324.403 298.032 324.849 298.032 325.359C298.032 325.702 298.067 326.013 298.137 326.292C298.211 326.571 298.326 326.823 298.48 327.049C298.634 327.274 298.845 327.451 299.114 327.578C299.383 327.705 299.698 327.769 300.062 327.769C300.29 327.769 300.507 327.74 300.711 327.681C300.915 327.617 301.079 327.551 301.203 327.482C301.332 327.414 301.469 327.311 301.613 327.174C301.763 327.032 301.862 326.931 301.912 326.872C301.962 326.809 302.044 326.706 302.158 326.564Z" fill="#288445"/>
<path d="M290.978 328.173C291.008 328.232 291.023 328.293 291.023 328.357C291.023 328.406 291.008 328.46 290.978 328.519C290.321 328.489 289.685 328.475 289.068 328.475C288.461 328.475 287.829 328.489 287.173 328.519C287.153 328.44 287.143 328.386 287.143 328.357C287.143 328.332 287.153 328.271 287.173 328.173C287.337 328.154 287.471 328.134 287.576 328.114C287.68 328.09 287.809 328.053 287.964 328.004C288.118 327.955 288.235 327.887 288.314 327.798C288.394 327.705 288.436 327.595 288.441 327.468C288.461 326.983 288.471 326.395 288.471 325.704C288.471 325.474 288.468 325.082 288.463 324.528C288.458 323.975 288.456 323.489 288.456 323.073C288.172 322.902 287.695 322.801 287.023 322.772C287.004 322.693 286.994 322.632 286.994 322.588C286.994 322.559 287.004 322.505 287.023 322.426C287.988 322.328 288.829 322.127 289.545 321.824C289.67 321.873 289.757 321.936 289.806 322.015V323.176C290.289 322.759 290.751 322.426 291.194 322.176C291.637 321.922 292.085 321.794 292.537 321.794C293.104 321.794 293.505 321.951 293.738 322.265C293.977 322.578 294.101 323.068 294.111 323.734L294.186 327.468C294.191 327.595 294.228 327.705 294.298 327.798C294.373 327.887 294.477 327.955 294.611 328.004C294.751 328.053 294.865 328.09 294.955 328.114C295.044 328.134 295.161 328.154 295.305 328.173C295.325 328.271 295.335 328.337 295.335 328.372C295.335 328.411 295.325 328.46 295.305 328.519C294.664 328.489 294.072 328.475 293.529 328.475C293.002 328.475 292.418 328.489 291.776 328.519C291.756 328.44 291.746 328.381 291.746 328.342C291.746 328.308 291.756 328.252 291.776 328.173C291.905 328.154 292.012 328.134 292.097 328.114C292.186 328.09 292.286 328.053 292.395 328.004C292.51 327.955 292.594 327.887 292.649 327.798C292.709 327.705 292.739 327.595 292.739 327.468L292.754 323.977C292.754 323.09 292.482 322.647 291.94 322.647C291.433 322.647 290.722 322.98 289.806 323.646C289.806 325.072 289.826 326.346 289.866 327.468C289.871 327.595 289.908 327.705 289.978 327.798C290.053 327.887 290.157 327.955 290.291 328.004C290.426 328.053 290.538 328.09 290.627 328.114C290.717 328.134 290.834 328.154 290.978 328.173Z" fill="#288445"/>
<path d="M280.133 323.646C280.133 323.107 280.382 322.664 280.879 322.316C281.381 321.968 281.973 321.794 282.655 321.794C283.49 321.794 284.077 321.958 284.416 322.287C284.759 322.615 284.93 323.169 284.93 323.948V326.997C284.93 327.272 285.032 327.409 285.236 327.409C285.4 327.409 285.609 327.213 285.863 326.821C286.042 326.836 286.164 326.914 286.229 327.056C286.194 327.105 286.134 327.193 286.05 327.321C285.965 327.448 285.903 327.539 285.863 327.593C285.823 327.647 285.761 327.73 285.676 327.843C285.592 327.95 285.522 328.031 285.468 328.085C285.418 328.139 285.348 328.203 285.259 328.276C285.174 328.35 285.095 328.406 285.02 328.445C284.95 328.479 284.868 328.509 284.774 328.533C284.679 328.563 284.585 328.577 284.49 328.577C284.241 328.577 284.035 328.489 283.871 328.313C283.712 328.137 283.617 327.865 283.587 327.497C283.582 327.502 283.505 327.573 283.356 327.71C283.207 327.847 283.102 327.941 283.043 327.99C282.988 328.034 282.881 328.114 282.722 328.232C282.568 328.345 282.436 328.426 282.327 328.475C282.217 328.524 282.08 328.57 281.916 328.614C281.752 328.663 281.59 328.688 281.431 328.688C281.178 328.688 280.951 328.653 280.752 328.585C280.558 328.516 280.407 328.433 280.297 328.335C280.188 328.237 280.098 328.124 280.029 327.997C279.959 327.865 279.912 327.745 279.887 327.637C279.867 327.529 279.857 327.421 279.857 327.313C279.857 326.985 279.912 326.708 280.021 326.483C280.135 326.258 280.344 326.047 280.648 325.851C280.956 325.655 281.334 325.481 281.782 325.329C282.23 325.177 282.831 325.006 283.587 324.815V323.793C283.587 323.298 283.476 322.929 283.252 322.684C283.033 322.439 282.737 322.316 282.364 322.316C282.031 322.316 281.75 322.382 281.521 322.515C281.297 322.642 281.16 322.791 281.11 322.963C281.598 323.036 281.842 323.298 281.842 323.749C281.842 323.955 281.767 324.136 281.618 324.293C281.469 324.45 281.26 324.528 280.991 324.528C280.767 324.528 280.568 324.452 280.394 324.3C280.22 324.144 280.133 323.926 280.133 323.646ZM283.587 326.821V325.285C283.13 325.388 282.752 325.501 282.453 325.623C282.155 325.741 281.926 325.871 281.767 326.013C281.613 326.155 281.506 326.302 281.446 326.454C281.386 326.601 281.357 326.772 281.357 326.968C281.357 327.213 281.429 327.407 281.573 327.549C281.722 327.686 281.904 327.754 282.118 327.754C282.615 327.754 283.105 327.443 283.587 326.821Z" fill="#288445"/>
<path d="M270.363 317.907C271.308 317.819 272.146 317.618 272.877 317.304C273.011 317.358 273.098 317.424 273.138 317.503V323.147C273.631 322.735 274.093 322.407 274.526 322.162C274.959 321.917 275.399 321.794 275.847 321.794C276.409 321.794 276.809 321.951 277.048 322.265C277.287 322.578 277.411 323.068 277.421 323.734L277.481 327.468C277.485 327.595 277.523 327.705 277.592 327.798C277.667 327.887 277.771 327.955 277.906 328.004C278.04 328.053 278.152 328.09 278.242 328.114C278.331 328.134 278.448 328.154 278.592 328.173C278.617 328.296 278.629 328.362 278.629 328.372C278.629 328.396 278.617 328.445 278.592 328.519C277.951 328.489 277.366 328.475 276.839 328.475C276.307 328.475 275.72 328.489 275.078 328.519C275.058 328.44 275.048 328.382 275.048 328.342C275.048 328.308 275.058 328.252 275.078 328.173C275.207 328.154 275.314 328.134 275.399 328.114C275.488 328.09 275.588 328.053 275.697 328.004C275.812 327.955 275.896 327.887 275.951 327.798C276.011 327.705 276.041 327.595 276.041 327.468L276.055 323.977C276.055 323.09 275.787 322.647 275.25 322.647C274.747 322.647 274.043 322.968 273.138 323.61C273.158 325.648 273.178 326.934 273.198 327.468C273.203 327.571 273.233 327.664 273.287 327.747C273.347 327.825 273.412 327.889 273.481 327.938C273.551 327.982 273.646 328.024 273.765 328.063C273.884 328.097 273.976 328.122 274.041 328.137C274.111 328.146 274.203 328.159 274.317 328.173C274.347 328.232 274.362 328.293 274.362 328.357C274.362 328.421 274.347 328.475 274.317 328.519C273.66 328.489 273.024 328.475 272.407 328.475C271.8 328.475 271.169 328.489 270.512 328.519C270.492 328.44 270.482 328.386 270.482 328.357C270.482 328.333 270.492 328.271 270.512 328.173C270.676 328.154 270.808 328.134 270.907 328.114C271.012 328.09 271.141 328.053 271.295 328.004C271.455 327.955 271.574 327.887 271.653 327.798C271.733 327.705 271.775 327.595 271.78 327.468C271.8 326.983 271.81 325.898 271.81 324.212C271.81 323.433 271.808 322.372 271.803 321.03C271.798 319.688 271.795 318.862 271.795 318.553C271.512 318.392 271.034 318.291 270.363 318.252C270.338 318.188 270.325 318.13 270.325 318.076C270.325 318.027 270.338 317.97 270.363 317.907Z" fill="#288445"/>
<path d="M265.278 328.173C265.308 328.232 265.323 328.293 265.323 328.357C265.323 328.406 265.308 328.46 265.278 328.519C264.622 328.489 263.985 328.475 263.368 328.475C262.761 328.475 262.13 328.489 261.473 328.519C261.453 328.44 261.443 328.386 261.443 328.357C261.443 328.332 261.453 328.271 261.473 328.173C261.637 328.154 261.771 328.134 261.876 328.114C261.98 328.09 262.11 328.053 262.264 328.004C262.418 327.955 262.535 327.887 262.615 327.798C262.694 327.705 262.736 327.595 262.741 327.468C262.761 326.983 262.771 326.395 262.771 325.704C262.771 325.474 262.769 325.082 262.764 324.528C262.759 323.975 262.756 323.489 262.756 323.073C262.473 322.902 261.995 322.801 261.324 322.772C261.304 322.693 261.294 322.632 261.294 322.588C261.294 322.559 261.304 322.505 261.324 322.426C262.289 322.328 263.129 322.127 263.846 321.824C263.97 321.873 264.057 321.936 264.107 322.015V323.176C264.589 322.759 265.052 322.426 265.494 322.176C265.937 321.922 266.385 321.794 266.837 321.794C267.404 321.794 267.805 321.951 268.039 322.265C268.277 322.578 268.402 323.068 268.412 323.734L268.486 327.468C268.491 327.595 268.529 327.705 268.598 327.798C268.673 327.887 268.777 327.955 268.912 328.004C269.051 328.053 269.165 328.09 269.255 328.114C269.344 328.134 269.461 328.154 269.605 328.173C269.625 328.271 269.635 328.337 269.635 328.372C269.635 328.411 269.625 328.46 269.605 328.519C268.964 328.489 268.372 328.475 267.83 328.475C267.303 328.475 266.718 328.489 266.076 328.519C266.057 328.44 266.047 328.381 266.047 328.342C266.047 328.308 266.057 328.252 266.076 328.173C266.206 328.154 266.313 328.134 266.397 328.114C266.487 328.09 266.586 328.053 266.696 328.004C266.81 327.955 266.895 327.887 266.949 327.798C267.009 327.705 267.039 327.595 267.039 327.468L267.054 323.977C267.054 323.09 266.783 322.647 266.241 322.647C265.733 322.647 265.022 322.98 264.107 323.646C264.107 325.072 264.127 326.346 264.166 327.468C264.171 327.595 264.209 327.705 264.278 327.798C264.353 327.887 264.457 327.955 264.592 328.004C264.726 328.053 264.838 328.09 264.927 328.114C265.017 328.134 265.134 328.154 265.278 328.173Z" fill="#288445"/>
<path d="M249.494 317.672C250.608 317.711 251.479 317.73 252.105 317.73C256.373 317.706 258.736 317.686 259.193 317.672C259.258 318.161 259.385 318.627 259.574 319.068C259.763 319.504 260.004 319.969 260.297 320.464C260.258 320.547 260.171 320.614 260.036 320.663C259.857 320.329 259.641 320.033 259.387 319.773C259.134 319.514 258.813 319.269 258.425 319.038C258.042 318.808 257.562 318.62 256.985 318.473C256.413 318.326 255.759 318.228 255.023 318.179H252.963C252.899 320.251 252.866 321.811 252.866 322.86H254.993C255.137 322.86 255.271 322.85 255.396 322.831C255.525 322.806 255.644 322.767 255.754 322.713C255.863 322.654 255.96 322.6 256.045 322.551C256.134 322.497 256.224 322.419 256.313 322.316C256.403 322.208 256.477 322.12 256.537 322.052C256.597 321.978 256.669 321.868 256.754 321.721C256.838 321.574 256.903 321.459 256.947 321.375C256.992 321.292 257.059 321.162 257.149 320.986C257.243 320.81 257.316 320.677 257.365 320.589C257.519 320.648 257.614 320.712 257.649 320.78C257.44 321.143 257.263 321.544 257.119 321.985C256.975 322.426 256.903 322.794 256.903 323.088C256.903 323.783 257.151 324.55 257.649 325.388C257.609 325.466 257.515 325.533 257.365 325.586C257.311 325.488 257.233 325.349 257.134 325.168C257.04 324.981 256.965 324.839 256.91 324.741C256.855 324.643 256.781 324.518 256.686 324.366C256.592 324.215 256.507 324.097 256.433 324.014C256.363 323.93 256.271 323.837 256.157 323.734C256.047 323.632 255.938 323.556 255.828 323.507C255.719 323.453 255.592 323.409 255.448 323.374C255.309 323.335 255.157 323.316 254.993 323.316H252.866C252.866 324.095 252.894 325.665 252.948 328.026H255.328C256.065 327.977 256.719 327.879 257.291 327.732C257.868 327.585 258.348 327.397 258.731 327.166C259.119 326.936 259.439 326.691 259.693 326.432C259.947 326.172 260.163 325.875 260.342 325.542C260.477 325.591 260.564 325.655 260.603 325.733C260.578 325.782 260.514 325.9 260.409 326.086C260.305 326.272 260.235 326.4 260.2 326.468C260.166 326.532 260.106 326.647 260.021 326.814C259.942 326.975 259.882 327.108 259.842 327.211C259.803 327.309 259.755 327.433 259.701 327.585C259.651 327.737 259.609 327.887 259.574 328.034C259.544 328.176 259.519 328.323 259.499 328.475H252.948C251.6 328.475 250.444 328.489 249.479 328.519C249.459 328.46 249.449 328.411 249.449 328.372C249.449 328.337 249.459 328.271 249.479 328.173C249.708 328.154 249.892 328.134 250.031 328.114C250.175 328.09 250.35 328.053 250.553 328.004C250.762 327.955 250.922 327.887 251.031 327.798C251.14 327.705 251.198 327.595 251.203 327.468C251.262 325.934 251.292 324.389 251.292 322.831C251.292 321.243 251.267 319.874 251.217 318.722C251.212 318.595 251.155 318.487 251.046 318.399C250.936 318.306 250.777 318.235 250.568 318.186C250.364 318.137 250.19 318.103 250.046 318.083C249.907 318.059 249.723 318.037 249.494 318.017C249.474 317.929 249.464 317.867 249.464 317.833C249.464 317.804 249.474 317.75 249.494 317.672Z" fill="#288445"/>
<path d="M232.87 328.173C232.9 328.232 232.915 328.293 232.915 328.357C232.915 328.406 232.9 328.46 232.87 328.519C232.214 328.489 231.577 328.475 230.96 328.475C230.354 328.475 229.722 328.489 229.065 328.519C229.045 328.44 229.035 328.386 229.035 328.357C229.035 328.332 229.045 328.271 229.065 328.173C229.229 328.154 229.364 328.134 229.468 328.114C229.573 328.09 229.702 328.053 229.856 328.004C230.01 327.955 230.127 327.887 230.207 327.798C230.286 327.705 230.329 327.595 230.334 327.468C230.354 326.983 230.364 326.395 230.364 325.704C230.364 325.474 230.361 325.082 230.356 324.528C230.351 323.975 230.349 323.489 230.349 323.073C230.065 322.902 229.588 322.801 228.916 322.772C228.896 322.693 228.886 322.632 228.886 322.588C228.886 322.559 228.896 322.505 228.916 322.426C229.881 322.328 230.722 322.127 231.438 321.824C231.562 321.873 231.649 321.936 231.699 322.015V323.176C232.181 322.759 232.644 322.426 233.087 322.176C233.529 321.922 233.977 321.794 234.43 321.794C234.997 321.794 235.397 321.951 235.631 322.265C235.87 322.578 235.994 323.068 236.004 323.734L236.079 327.468C236.084 327.595 236.121 327.705 236.191 327.798C236.265 327.887 236.37 327.955 236.504 328.004C236.643 328.053 236.758 328.09 236.847 328.114C236.937 328.134 237.054 328.154 237.198 328.173C237.218 328.271 237.228 328.337 237.228 328.372C237.228 328.411 237.218 328.46 237.198 328.519C236.556 328.489 235.964 328.475 235.422 328.475C234.895 328.475 234.31 328.489 233.669 328.519C233.649 328.44 233.639 328.381 233.639 328.342C233.639 328.308 233.649 328.252 233.669 328.173C233.798 328.154 233.905 328.134 233.99 328.114C234.079 328.09 234.179 328.053 234.288 328.004C234.402 327.955 234.487 327.887 234.542 327.798C234.601 327.705 234.631 327.595 234.631 327.468L234.646 323.977C234.646 323.09 234.375 322.647 233.833 322.647C233.326 322.647 232.614 322.98 231.699 323.646C231.699 325.072 231.719 326.346 231.759 327.468C231.764 327.595 231.801 327.705 231.871 327.798C231.945 327.887 232.05 327.955 232.184 328.004C232.318 328.053 232.43 328.09 232.52 328.114C232.609 328.134 232.726 328.154 232.87 328.173Z" fill="#288445"/>
<path d="M224.04 322.426C225.005 322.328 225.846 322.128 226.562 321.824C226.686 321.873 226.774 321.936 226.823 322.015C226.823 324.558 226.843 326.375 226.883 327.468C226.888 327.595 226.925 327.705 226.995 327.799C227.069 327.887 227.174 327.955 227.308 328.004C227.443 328.053 227.554 328.09 227.644 328.115C227.734 328.134 227.85 328.154 227.995 328.173C228.024 328.232 228.039 328.293 228.039 328.357C228.039 328.421 228.024 328.475 227.995 328.519C227.338 328.489 226.701 328.475 226.085 328.475C225.478 328.475 224.846 328.489 224.19 328.519C224.17 328.44 224.16 328.386 224.16 328.357C224.16 328.333 224.17 328.271 224.19 328.173C224.354 328.154 224.488 328.134 224.592 328.115C224.697 328.09 224.826 328.053 224.98 328.004C225.135 327.955 225.252 327.887 225.331 327.799C225.411 327.705 225.453 327.595 225.458 327.468C225.478 326.983 225.488 326.395 225.488 325.704C225.488 325.474 225.485 325.082 225.48 324.528C225.475 323.975 225.473 323.49 225.473 323.073C225.189 322.902 224.712 322.801 224.04 322.772C224.02 322.693 224.01 322.632 224.01 322.588C224.01 322.559 224.02 322.505 224.04 322.426ZM225.212 319.354C225.212 319.105 225.301 318.892 225.48 318.715C225.664 318.539 225.881 318.451 226.129 318.451C226.383 318.451 226.599 318.539 226.779 318.715C226.958 318.892 227.047 319.105 227.047 319.354C227.047 319.599 226.958 319.813 226.779 319.994C226.599 320.17 226.383 320.258 226.129 320.258C225.881 320.258 225.664 320.17 225.48 319.994C225.301 319.813 225.212 319.599 225.212 319.354Z" fill="#288445"/>
<path d="M217.15 323.646C217.15 323.107 217.399 322.664 217.896 322.316C218.398 321.968 218.99 321.794 219.672 321.794C220.507 321.794 221.094 321.958 221.432 322.287C221.776 322.615 221.947 323.169 221.947 323.948V326.997C221.947 327.272 222.049 327.409 222.253 327.409C222.417 327.409 222.626 327.213 222.88 326.821C223.059 326.836 223.181 326.914 223.245 327.056C223.211 327.105 223.151 327.193 223.066 327.321C222.982 327.448 222.92 327.539 222.88 327.593C222.84 327.647 222.778 327.73 222.693 327.843C222.609 327.95 222.539 328.031 222.484 328.085C222.435 328.139 222.365 328.203 222.276 328.276C222.191 328.35 222.111 328.406 222.037 328.445C221.967 328.479 221.885 328.509 221.791 328.533C221.696 328.563 221.602 328.577 221.507 328.577C221.258 328.577 221.052 328.489 220.888 328.313C220.729 328.137 220.634 327.865 220.604 327.497C220.599 327.502 220.522 327.573 220.373 327.71C220.224 327.847 220.119 327.941 220.06 327.99C220.005 328.034 219.898 328.114 219.739 328.232C219.585 328.345 219.453 328.426 219.343 328.475C219.234 328.524 219.097 328.57 218.933 328.614C218.769 328.663 218.607 328.688 218.448 328.688C218.194 328.688 217.968 328.653 217.769 328.585C217.575 328.516 217.423 328.433 217.314 328.335C217.205 328.237 217.115 328.124 217.045 327.997C216.976 327.865 216.928 327.745 216.904 327.637C216.884 327.529 216.874 327.421 216.874 327.313C216.874 326.985 216.928 326.708 217.038 326.483C217.152 326.258 217.361 326.047 217.665 325.851C217.973 325.655 218.351 325.481 218.799 325.329C219.246 325.177 219.848 325.006 220.604 324.815V323.793C220.604 323.298 220.492 322.929 220.269 322.684C220.05 322.439 219.754 322.316 219.381 322.316C219.047 322.316 218.766 322.382 218.538 322.515C218.314 322.642 218.177 322.791 218.127 322.963C218.615 323.036 218.858 323.298 218.858 323.749C218.858 323.955 218.784 324.136 218.635 324.293C218.485 324.45 218.276 324.528 218.008 324.528C217.784 324.528 217.585 324.452 217.411 324.3C217.237 324.144 217.15 323.926 217.15 323.646ZM220.604 326.821V325.285C220.147 325.388 219.769 325.501 219.47 325.623C219.172 325.741 218.943 325.871 218.784 326.013C218.63 326.155 218.523 326.302 218.463 326.454C218.403 326.601 218.373 326.772 218.373 326.968C218.373 327.213 218.446 327.407 218.59 327.549C218.739 327.686 218.921 327.754 219.134 327.754C219.632 327.754 220.122 327.443 220.604 326.821Z" fill="#288445"/>
<path d="M212.737 320.545C212.786 320.525 212.844 320.516 212.908 320.516C212.973 320.516 213.04 320.525 213.11 320.545V322.154H215.37C215.4 322.228 215.415 322.319 215.415 322.426C215.415 322.519 215.4 322.605 215.37 322.684H213.11V326.608C213.11 327.382 213.47 327.769 214.192 327.769C214.465 327.769 214.699 327.718 214.893 327.615C215.092 327.512 215.311 327.358 215.55 327.152C215.674 327.166 215.756 327.225 215.796 327.328C215.577 327.715 215.254 328.039 214.826 328.298C214.398 328.558 213.928 328.688 213.416 328.688C212.212 328.688 211.61 327.97 211.61 326.534V322.684H210.692C210.673 322.595 210.663 322.539 210.663 322.515C210.663 322.51 210.673 322.453 210.692 322.346C210.931 322.228 211.113 322.132 211.237 322.059C211.366 321.981 211.528 321.87 211.722 321.728C211.921 321.586 212.1 321.42 212.259 321.228C212.423 321.033 212.583 320.805 212.737 320.545Z" fill="#288445"/>
<path d="M205.458 328.173C205.488 328.232 205.503 328.293 205.503 328.357C205.503 328.406 205.488 328.46 205.458 328.519C204.802 328.489 204.165 328.475 203.548 328.475C202.941 328.475 202.31 328.489 201.653 328.519C201.633 328.44 201.623 328.386 201.623 328.357C201.623 328.332 201.633 328.271 201.653 328.173C201.817 328.154 201.952 328.134 202.056 328.114C202.161 328.09 202.29 328.053 202.444 328.004C202.598 327.955 202.715 327.887 202.795 327.798C202.874 327.705 202.917 327.595 202.922 327.468C202.941 326.983 202.951 326.395 202.951 325.704C202.951 325.474 202.949 325.082 202.944 324.528C202.939 323.975 202.936 323.489 202.936 323.073C202.653 322.902 202.175 322.801 201.504 322.772C201.484 322.693 201.474 322.632 201.474 322.588C201.474 322.559 201.484 322.505 201.504 322.426C202.469 322.328 203.31 322.127 204.026 321.824C204.15 321.873 204.237 321.936 204.287 322.015V323.176C204.769 322.759 205.232 322.426 205.675 322.176C206.117 321.922 206.565 321.794 207.018 321.794C207.585 321.794 207.985 321.951 208.219 322.265C208.458 322.578 208.582 323.068 208.592 323.734L208.666 327.468C208.671 327.595 208.709 327.705 208.778 327.798C208.853 327.887 208.957 327.955 209.092 328.004C209.231 328.053 209.345 328.09 209.435 328.114C209.525 328.134 209.641 328.154 209.786 328.173C209.806 328.271 209.815 328.337 209.815 328.372C209.815 328.411 209.806 328.46 209.786 328.519C209.144 328.489 208.552 328.475 208.01 328.475C207.483 328.475 206.898 328.489 206.257 328.519C206.237 328.44 206.227 328.381 206.227 328.342C206.227 328.308 206.237 328.252 206.257 328.173C206.386 328.154 206.493 328.134 206.577 328.114C206.667 328.09 206.766 328.053 206.876 328.004C206.99 327.955 207.075 327.887 207.13 327.798C207.189 327.705 207.219 327.595 207.219 327.468L207.234 323.977C207.234 323.09 206.963 322.647 206.421 322.647C205.913 322.647 205.202 322.98 204.287 323.646C204.287 325.072 204.307 326.346 204.347 327.468C204.352 327.595 204.389 327.705 204.459 327.798C204.533 327.887 204.638 327.955 204.772 328.004C204.906 328.053 205.018 328.09 205.108 328.114C205.197 328.134 205.314 328.154 205.458 328.173Z" fill="#288445"/>
<path d="M196.628 322.426C197.593 322.328 198.434 322.128 199.15 321.824C199.274 321.873 199.361 321.936 199.411 322.015C199.411 324.558 199.431 326.375 199.471 327.468C199.476 327.595 199.513 327.705 199.583 327.799C199.657 327.887 199.762 327.955 199.896 328.004C200.03 328.053 200.142 328.09 200.232 328.115C200.321 328.134 200.438 328.154 200.582 328.173C200.612 328.232 200.627 328.293 200.627 328.357C200.627 328.421 200.612 328.475 200.582 328.519C199.926 328.489 199.289 328.475 198.672 328.475C198.065 328.475 197.434 328.489 196.777 328.519C196.757 328.44 196.747 328.386 196.747 328.357C196.747 328.333 196.757 328.271 196.777 328.173C196.941 328.154 197.076 328.134 197.18 328.115C197.285 328.09 197.414 328.053 197.568 328.004C197.722 327.955 197.839 327.887 197.919 327.799C197.998 327.705 198.041 327.595 198.046 327.468C198.065 326.983 198.075 326.395 198.075 325.704C198.075 325.474 198.073 325.082 198.068 324.528C198.063 323.975 198.06 323.49 198.06 323.073C197.777 322.902 197.299 322.801 196.628 322.772C196.608 322.693 196.598 322.632 196.598 322.588C196.598 322.559 196.608 322.505 196.628 322.426ZM197.799 319.354C197.799 319.105 197.889 318.892 198.068 318.715C198.252 318.539 198.468 318.451 198.717 318.451C198.971 318.451 199.187 318.539 199.366 318.715C199.545 318.892 199.635 319.105 199.635 319.354C199.635 319.599 199.545 319.813 199.366 319.994C199.187 320.17 198.971 320.258 198.717 320.258C198.468 320.258 198.252 320.17 198.068 319.994C197.889 319.813 197.799 319.599 197.799 319.354Z" fill="#288445"/>
<path d="M189.738 323.646C189.738 323.107 189.986 322.664 190.484 322.316C190.986 321.968 191.578 321.794 192.26 321.794C193.095 321.794 193.682 321.958 194.02 322.287C194.364 322.615 194.535 323.169 194.535 323.948V326.997C194.535 327.272 194.637 327.409 194.841 327.409C195.005 327.409 195.214 327.213 195.468 326.821C195.647 326.836 195.769 326.914 195.833 327.056C195.799 327.105 195.739 327.193 195.654 327.321C195.57 327.448 195.508 327.539 195.468 327.593C195.428 327.647 195.366 327.73 195.281 327.843C195.197 327.95 195.127 328.031 195.072 328.085C195.023 328.139 194.953 328.203 194.863 328.276C194.779 328.35 194.699 328.406 194.625 328.445C194.555 328.479 194.473 328.509 194.378 328.533C194.284 328.563 194.189 328.577 194.095 328.577C193.846 328.577 193.64 328.489 193.476 328.313C193.317 328.137 193.222 327.865 193.192 327.497C193.187 327.502 193.11 327.573 192.961 327.71C192.812 327.847 192.707 327.941 192.648 327.99C192.593 328.034 192.486 328.114 192.327 328.232C192.172 328.345 192.041 328.426 191.931 328.475C191.822 328.524 191.685 328.57 191.521 328.614C191.357 328.663 191.195 328.688 191.036 328.688C190.782 328.688 190.556 328.653 190.357 328.585C190.163 328.516 190.011 328.433 189.902 328.335C189.792 328.237 189.703 328.124 189.633 327.997C189.564 327.865 189.516 327.745 189.492 327.637C189.472 327.529 189.462 327.421 189.462 327.313C189.462 326.985 189.516 326.708 189.626 326.483C189.74 326.258 189.949 326.047 190.253 325.851C190.561 325.655 190.939 325.481 191.387 325.329C191.834 325.177 192.436 325.006 193.192 324.815V323.793C193.192 323.298 193.08 322.929 192.856 322.684C192.638 322.439 192.342 322.316 191.969 322.316C191.635 322.316 191.354 322.382 191.125 322.515C190.902 322.642 190.765 322.791 190.715 322.963C191.203 323.036 191.446 323.298 191.446 323.749C191.446 323.955 191.372 324.136 191.222 324.293C191.073 324.45 190.864 324.528 190.596 324.528C190.372 324.528 190.173 324.452 189.999 324.3C189.825 324.144 189.738 323.926 189.738 323.646ZM193.192 326.821V325.285C192.735 325.388 192.357 325.501 192.058 325.623C191.76 325.741 191.531 325.871 191.372 326.013C191.217 326.155 191.111 326.302 191.051 326.454C190.991 326.601 190.961 326.772 190.961 326.968C190.961 327.213 191.033 327.407 191.178 327.549C191.327 327.686 191.508 327.754 191.722 327.754C192.22 327.754 192.71 327.443 193.192 326.821Z" fill="#288445"/>
<path d="M175.103 317.672C176.038 317.711 177.214 317.73 178.632 317.73L181.519 325.432H181.557L184.563 317.73H185.421C186.038 317.73 186.909 317.711 188.033 317.672C188.053 317.75 188.063 317.804 188.063 317.833C188.063 317.867 188.053 317.929 188.033 318.017C187.854 318.032 187.71 318.046 187.6 318.061C187.491 318.076 187.344 318.1 187.16 318.134C186.981 318.169 186.837 318.21 186.727 318.259C186.618 318.304 186.521 318.367 186.436 318.451C186.352 318.529 186.307 318.62 186.302 318.722C186.252 319.874 186.227 321.243 186.227 322.831C186.227 324.442 186.26 325.988 186.324 327.468C186.329 327.595 186.386 327.705 186.496 327.798C186.605 327.887 186.762 327.955 186.966 328.004C187.175 328.053 187.349 328.09 187.488 328.114C187.632 328.134 187.819 328.154 188.048 328.173C188.068 328.252 188.078 328.318 188.078 328.372C188.078 328.411 188.068 328.46 188.048 328.519C187.207 328.489 186.342 328.475 185.451 328.475C184.556 328.475 183.691 328.489 182.855 328.519C182.835 328.46 182.825 328.411 182.825 328.372C182.825 328.288 182.835 328.222 182.855 328.173C183.084 328.154 183.268 328.134 183.407 328.114C183.551 328.09 183.725 328.053 183.929 328.004C184.138 327.955 184.297 327.887 184.407 327.798C184.516 327.705 184.573 327.595 184.578 327.468C184.628 325.939 184.653 324.575 184.653 323.374C184.653 322.223 184.628 320.912 184.578 319.443H184.519L181.109 328.291H181.034L177.401 319.266H177.319C177.279 320.457 177.259 321.826 177.259 323.374C177.259 324.511 177.284 325.839 177.334 327.358C177.344 327.803 177.893 328.075 178.983 328.173C179.008 328.257 179.02 328.323 179.02 328.372C179.02 328.421 179.008 328.47 178.983 328.519C178.192 328.489 177.485 328.475 176.864 328.475C176.466 328.475 175.799 328.489 174.864 328.519C174.839 328.47 174.827 328.421 174.827 328.372C174.827 328.288 174.839 328.222 174.864 328.173C175.963 328.07 176.513 327.798 176.513 327.358C176.573 325.829 176.603 324.32 176.603 322.831C176.603 321.758 176.588 320.618 176.558 319.413C176.553 319.207 176.54 319.036 176.521 318.899C176.501 318.757 176.463 318.634 176.409 318.531C176.354 318.428 176.297 318.348 176.237 318.289C176.177 318.23 176.085 318.179 175.961 318.134C175.837 318.086 175.715 318.051 175.595 318.032C175.481 318.007 175.317 317.98 175.103 317.951C175.083 317.912 175.073 317.867 175.073 317.818C175.073 317.76 175.083 317.711 175.103 317.672Z" fill="#288445"/>
<path d="M158.214 324.58H154.148C154.128 324.874 154.118 325.133 154.118 325.359C154.133 326.089 154.35 326.674 154.767 327.115C155.185 327.551 155.745 327.769 156.446 327.769C156.635 327.769 156.812 327.749 156.976 327.71C157.14 327.666 157.274 327.617 157.379 327.563C157.488 327.509 157.6 327.431 157.714 327.328C157.829 327.225 157.911 327.144 157.961 327.086C158.015 327.022 158.087 326.929 158.177 326.806C158.267 326.679 158.326 326.598 158.356 326.564C158.475 326.588 158.572 326.642 158.647 326.726C158.398 327.382 158.013 327.874 157.491 328.203C156.968 328.526 156.401 328.688 155.789 328.688C155.486 328.688 155.19 328.648 154.902 328.57C154.618 328.497 154.342 328.374 154.073 328.203C153.805 328.031 153.571 327.821 153.372 327.571C153.173 327.316 153.014 327 152.895 326.623C152.775 326.24 152.716 325.819 152.716 325.359C152.716 324.325 153.036 323.472 153.678 322.801C154.32 322.13 155.108 321.794 156.043 321.794C156.456 321.794 156.814 321.853 157.118 321.971C157.426 322.083 157.665 322.238 157.834 322.434C158.008 322.63 158.135 322.845 158.214 323.08C158.299 323.311 158.341 323.558 158.341 323.823C158.341 324.068 158.299 324.32 158.214 324.58ZM155.864 322.272C155.521 322.272 155.195 322.421 154.887 322.72C154.583 323.019 154.364 323.472 154.23 324.08H156.916C156.966 323.894 156.991 323.732 156.991 323.595C156.991 323.213 156.901 322.897 156.722 322.647C156.543 322.397 156.257 322.272 155.864 322.272Z" fill="#288445"/>
<path d="M150.384 324.095C150.384 324.869 150.13 325.488 149.623 325.954C149.116 326.419 148.499 326.652 147.773 326.652C147.429 326.652 147.109 326.628 146.81 326.579C146.512 326.765 146.363 326.995 146.363 327.269C146.363 327.49 146.502 327.652 146.78 327.754C147.064 327.852 147.546 327.901 148.228 327.901C148.337 327.901 148.544 327.896 148.847 327.887C149.15 327.877 149.392 327.872 149.571 327.872C150.958 327.872 151.652 328.433 151.652 329.555C151.652 329.873 151.555 330.209 151.361 330.562C151.172 330.914 150.911 331.243 150.578 331.547C150.25 331.855 149.834 332.11 149.332 332.311C148.835 332.512 148.31 332.612 147.758 332.612C146.887 332.612 146.228 332.453 145.781 332.134C145.333 331.821 145.109 331.429 145.109 330.959C145.109 330.63 145.231 330.302 145.475 329.974C145.723 329.646 146.091 329.352 146.579 329.092C145.619 328.955 145.139 328.587 145.139 327.99C145.139 327.705 145.246 327.438 145.46 327.189C145.679 326.934 145.975 326.669 146.348 326.395C145.84 326.116 145.49 325.795 145.296 325.432C145.102 325.07 145.005 324.658 145.005 324.197C145.005 323.913 145.072 323.629 145.206 323.345C145.345 323.056 145.532 322.799 145.766 322.573C145.999 322.343 146.285 322.157 146.624 322.015C146.967 321.868 147.327 321.794 147.706 321.794C148.054 321.794 148.34 321.821 148.564 321.875C148.787 321.924 149.066 322.012 149.399 322.14C149.732 322.267 150.046 322.372 150.339 322.456C150.364 322.265 150.441 322.103 150.571 321.971C150.7 321.834 150.866 321.765 151.07 321.765C151.254 321.765 151.419 321.841 151.563 321.993C151.712 322.145 151.787 322.319 151.787 322.515C151.787 322.715 151.722 322.889 151.593 323.036C151.468 323.178 151.309 323.249 151.115 323.249C151.001 323.249 150.886 323.23 150.772 323.191C150.658 323.151 150.563 323.112 150.488 323.073C150.419 323.029 150.314 322.96 150.175 322.867C150.036 322.769 149.926 322.696 149.847 322.647L149.817 322.684C150.001 322.845 150.14 323.053 150.235 323.308C150.334 323.558 150.384 323.82 150.384 324.095ZM146.489 330.429C146.489 330.625 146.519 330.812 146.579 330.988C146.639 331.164 146.733 331.331 146.862 331.488C146.992 331.644 147.173 331.767 147.407 331.855C147.646 331.948 147.924 331.995 148.243 331.995C148.651 331.995 149.011 331.931 149.325 331.804C149.643 331.681 149.884 331.527 150.048 331.341C150.212 331.155 150.334 330.973 150.414 330.797C150.493 330.625 150.533 330.469 150.533 330.327C150.533 330.131 150.516 329.964 150.481 329.827C150.446 329.695 150.379 329.565 150.28 329.437C150.185 329.315 150.036 329.222 149.832 329.158C149.628 329.094 149.369 329.063 149.056 329.063C148.887 329.063 148.571 329.072 148.108 329.092C147.646 329.112 147.35 329.121 147.221 329.121C146.992 329.278 146.813 329.472 146.683 329.702C146.554 329.932 146.489 330.175 146.489 330.429ZM146.519 324.212C146.519 325.52 146.915 326.174 147.706 326.174C148.084 326.174 148.372 326.013 148.571 325.689C148.77 325.366 148.869 324.829 148.869 324.08C148.869 323.737 148.83 323.441 148.75 323.191C148.67 322.936 148.566 322.747 148.437 322.625C148.312 322.497 148.185 322.407 148.056 322.353C147.932 322.299 147.805 322.272 147.676 322.272C147.342 322.272 147.066 322.426 146.847 322.735C146.629 323.044 146.519 323.536 146.519 324.212Z" fill="#288445"/>
<path d="M137.764 323.646C137.764 323.107 138.012 322.664 138.51 322.316C139.012 321.968 139.604 321.794 140.285 321.794C141.121 321.794 141.708 321.958 142.046 322.287C142.389 322.615 142.561 323.169 142.561 323.948V326.997C142.561 327.272 142.663 327.409 142.867 327.409C143.031 327.409 143.24 327.213 143.494 326.821C143.673 326.836 143.795 326.914 143.859 327.056C143.824 327.105 143.765 327.193 143.68 327.321C143.596 327.448 143.533 327.539 143.494 327.593C143.454 327.647 143.392 327.73 143.307 327.843C143.223 327.95 143.153 328.031 143.098 328.085C143.048 328.139 142.979 328.203 142.889 328.276C142.805 328.35 142.725 328.406 142.651 328.445C142.581 328.479 142.499 328.509 142.404 328.533C142.31 328.563 142.215 328.577 142.121 328.577C141.872 328.577 141.666 328.489 141.502 328.313C141.342 328.137 141.248 327.865 141.218 327.497C141.213 327.502 141.136 327.573 140.987 327.71C140.838 327.847 140.733 327.941 140.673 327.99C140.619 328.034 140.512 328.114 140.353 328.232C140.198 328.345 140.067 328.426 139.957 328.475C139.848 328.524 139.711 328.57 139.547 328.614C139.383 328.663 139.221 328.688 139.062 328.688C138.808 328.688 138.582 328.653 138.383 328.585C138.189 328.516 138.037 328.433 137.928 328.335C137.818 328.237 137.729 328.124 137.659 327.997C137.59 327.865 137.542 327.745 137.517 327.637C137.497 327.529 137.488 327.421 137.488 327.313C137.488 326.985 137.542 326.708 137.652 326.483C137.766 326.258 137.975 326.047 138.278 325.851C138.587 325.655 138.965 325.481 139.412 325.329C139.86 325.177 140.462 325.006 141.218 324.815V323.793C141.218 323.298 141.106 322.929 140.882 322.684C140.663 322.439 140.367 322.316 139.994 322.316C139.661 322.316 139.38 322.382 139.151 322.515C138.928 322.642 138.791 322.791 138.741 322.963C139.228 323.036 139.472 323.298 139.472 323.749C139.472 323.955 139.398 324.136 139.248 324.293C139.099 324.45 138.89 324.528 138.622 324.528C138.398 324.528 138.199 324.452 138.025 324.3C137.851 324.144 137.764 323.926 137.764 323.646ZM141.218 326.821V325.285C140.76 325.388 140.382 325.501 140.084 325.623C139.786 325.741 139.557 325.871 139.398 326.013C139.243 326.155 139.136 326.302 139.077 326.454C139.017 326.601 138.987 326.772 138.987 326.968C138.987 327.213 139.059 327.407 139.204 327.549C139.353 327.686 139.534 327.754 139.748 327.754C140.246 327.754 140.736 327.443 141.218 326.821Z" fill="#288445"/>
<path d="M131.903 328.173C131.932 328.232 131.947 328.293 131.947 328.357C131.947 328.406 131.932 328.46 131.903 328.519C131.246 328.489 130.609 328.475 129.993 328.475C129.386 328.475 128.754 328.489 128.098 328.519C128.078 328.44 128.068 328.386 128.068 328.357C128.068 328.332 128.078 328.271 128.098 328.173C128.262 328.154 128.396 328.134 128.5 328.114C128.605 328.09 128.734 328.053 128.888 328.004C129.043 327.955 129.159 327.887 129.239 327.798C129.319 327.705 129.361 327.595 129.366 327.468C129.386 326.983 129.396 326.395 129.396 325.704C129.396 325.474 129.393 325.082 129.388 324.528C129.383 323.975 129.381 323.489 129.381 323.073C129.097 322.902 128.62 322.801 127.948 322.772C127.928 322.693 127.918 322.632 127.918 322.588C127.918 322.559 127.928 322.505 127.948 322.426C128.913 322.328 129.754 322.127 130.47 321.824C130.594 321.873 130.682 321.936 130.731 322.015V323.176C131.214 322.759 131.676 322.426 132.119 322.176C132.562 321.922 133.009 321.794 133.462 321.794C134.029 321.794 134.429 321.951 134.663 322.265C134.902 322.578 135.026 323.068 135.036 323.734L135.111 327.468C135.116 327.595 135.153 327.705 135.223 327.798C135.297 327.887 135.402 327.955 135.536 328.004C135.675 328.053 135.79 328.09 135.879 328.114C135.969 328.134 136.086 328.154 136.23 328.173C136.25 328.271 136.26 328.337 136.26 328.372C136.26 328.411 136.25 328.46 136.23 328.519C135.588 328.489 134.996 328.475 134.454 328.475C133.927 328.475 133.343 328.489 132.701 328.519C132.681 328.44 132.671 328.381 132.671 328.342C132.671 328.308 132.681 328.252 132.701 328.173C132.83 328.154 132.937 328.134 133.022 328.114C133.111 328.09 133.211 328.053 133.32 328.004C133.435 327.955 133.519 327.887 133.574 327.798C133.634 327.705 133.663 327.595 133.663 327.468L133.678 323.977C133.678 323.09 133.407 322.647 132.865 322.647C132.358 322.647 131.646 322.98 130.731 323.646C130.731 325.072 130.751 326.346 130.791 327.468C130.796 327.595 130.833 327.705 130.903 327.798C130.977 327.887 131.082 327.955 131.216 328.004C131.351 328.053 131.462 328.09 131.552 328.114C131.641 328.134 131.758 328.154 131.903 328.173Z" fill="#288445"/>
<path d="M121.058 323.646C121.058 323.107 121.307 322.664 121.804 322.316C122.307 321.968 122.899 321.794 123.58 321.794C124.416 321.794 125.003 321.958 125.341 322.287C125.684 322.615 125.856 323.169 125.856 323.948V326.997C125.856 327.272 125.958 327.409 126.162 327.409C126.326 327.409 126.535 327.213 126.788 326.821C126.967 326.836 127.089 326.914 127.154 327.056C127.119 327.105 127.059 327.193 126.975 327.321C126.89 327.448 126.828 327.539 126.788 327.593C126.749 327.647 126.686 327.73 126.602 327.843C126.517 327.95 126.448 328.031 126.393 328.085C126.343 328.139 126.273 328.203 126.184 328.276C126.099 328.35 126.02 328.406 125.945 328.445C125.876 328.479 125.794 328.509 125.699 328.533C125.604 328.563 125.51 328.577 125.415 328.577C125.167 328.577 124.96 328.489 124.796 328.313C124.637 328.137 124.543 327.865 124.513 327.497C124.508 327.502 124.431 327.573 124.281 327.71C124.132 327.847 124.028 327.941 123.968 327.99C123.913 328.034 123.806 328.114 123.647 328.232C123.493 328.345 123.361 328.426 123.252 328.475C123.142 328.524 123.006 328.57 122.841 328.614C122.677 328.663 122.516 328.688 122.356 328.688C122.103 328.688 121.877 328.653 121.678 328.585C121.484 328.516 121.332 328.433 121.222 328.335C121.113 328.237 121.023 328.124 120.954 327.997C120.884 327.865 120.837 327.745 120.812 327.637C120.792 327.529 120.782 327.421 120.782 327.313C120.782 326.985 120.837 326.708 120.946 326.483C121.061 326.258 121.27 326.047 121.573 325.851C121.881 325.655 122.259 325.481 122.707 325.329C123.155 325.177 123.757 325.006 124.513 324.815V323.793C124.513 323.298 124.401 322.929 124.177 322.684C123.958 322.439 123.662 322.316 123.289 322.316C122.956 322.316 122.675 322.382 122.446 322.515C122.222 322.642 122.085 322.791 122.036 322.963C122.523 323.036 122.767 323.298 122.767 323.749C122.767 323.955 122.692 324.136 122.543 324.293C122.394 324.45 122.185 324.528 121.916 324.528C121.692 324.528 121.494 324.452 121.319 324.3C121.145 324.144 121.058 323.926 121.058 323.646ZM124.513 326.821V325.285C124.055 325.388 123.677 325.501 123.379 325.623C123.08 325.741 122.851 325.871 122.692 326.013C122.538 326.155 122.431 326.302 122.371 326.454C122.312 326.601 122.282 326.772 122.282 326.968C122.282 327.213 122.354 327.407 122.498 327.549C122.647 327.686 122.829 327.754 123.043 327.754C123.54 327.754 124.03 327.443 124.513 326.821Z" fill="#288445"/>
<path d="M106.423 317.672C107.358 317.711 108.535 317.73 109.952 317.73L112.84 325.432H112.877L115.884 317.73H116.742C117.359 317.73 118.229 317.711 119.353 317.672C119.373 317.75 119.383 317.804 119.383 317.833C119.383 317.867 119.373 317.929 119.353 318.017C119.174 318.032 119.03 318.046 118.92 318.061C118.811 318.076 118.664 318.1 118.48 318.134C118.301 318.169 118.157 318.21 118.047 318.259C117.938 318.304 117.841 318.367 117.756 318.451C117.672 318.529 117.627 318.62 117.622 318.722C117.572 319.874 117.548 321.243 117.548 322.831C117.548 324.442 117.58 325.988 117.645 327.468C117.65 327.595 117.707 327.705 117.816 327.798C117.926 327.887 118.082 327.955 118.286 328.004C118.495 328.053 118.669 328.09 118.808 328.114C118.953 328.134 119.139 328.154 119.368 328.173C119.388 328.252 119.398 328.318 119.398 328.372C119.398 328.411 119.388 328.46 119.368 328.519C118.527 328.489 117.662 328.475 116.772 328.475C115.876 328.475 115.011 328.489 114.175 328.519C114.155 328.46 114.145 328.411 114.145 328.372C114.145 328.288 114.155 328.222 114.175 328.173C114.404 328.154 114.588 328.134 114.727 328.114C114.872 328.09 115.046 328.053 115.25 328.004C115.459 327.955 115.618 327.887 115.727 327.798C115.837 327.705 115.894 327.595 115.899 327.468C115.948 325.939 115.973 324.575 115.973 323.374C115.973 322.223 115.948 320.912 115.899 319.443H115.839L112.429 328.291H112.355L108.721 319.266H108.639C108.599 320.457 108.579 321.826 108.579 323.374C108.579 324.511 108.604 325.839 108.654 327.358C108.664 327.803 109.214 328.075 110.303 328.173C110.328 328.257 110.34 328.323 110.34 328.372C110.34 328.421 110.328 328.47 110.303 328.519C109.512 328.489 108.806 328.475 108.184 328.475C107.786 328.475 107.12 328.489 106.185 328.519C106.16 328.47 106.147 328.421 106.147 328.372C106.147 328.288 106.16 328.222 106.185 328.173C107.284 328.07 107.833 327.798 107.833 327.358C107.893 325.829 107.923 324.32 107.923 322.831C107.923 321.758 107.908 320.618 107.878 319.413C107.873 319.207 107.861 319.036 107.841 318.899C107.821 318.757 107.784 318.634 107.729 318.531C107.674 318.428 107.617 318.348 107.557 318.289C107.498 318.23 107.406 318.179 107.281 318.134C107.157 318.086 107.035 318.051 106.916 318.032C106.801 318.007 106.637 317.98 106.423 317.951C106.403 317.912 106.393 317.867 106.393 317.818C106.393 317.76 106.403 317.711 106.423 317.672Z" fill="#288445"/>
<path d="M169 325.5C169 326.881 167.881 328 166.5 328C165.119 328 164 326.881 164 325.5C164 324.119 165.119 323 166.5 323C167.881 323 169 324.119 169 325.5Z" fill="#1A1B1A"/>
<path d="M245 325.5C245 326.881 244.105 328 243 328C241.895 328 241 326.881 241 325.5C241 324.119 241.895 323 243 323C244.105 323 245 324.119 245 325.5Z" fill="#1A1B1A"/>
<path d="M318 325.5C318 326.881 316.881 328 315.5 328C314.119 328 313 326.881 313 325.5C313 324.119 314.119 323 315.5 323C316.881 323 318 324.119 318 325.5Z" fill="#1A1B1A"/>
<path d="M221.007 31.1189C224.865 30.9857 228.726 30.9644 232.584 31.0551C281.077 32.3738 316.376 67.1397 313.875 111.409C312.604 133.904 303.704 152.25 285.942 167.597C282.943 165.656 280.827 163.546 278.62 160.89C279.442 159.541 281.055 157.476 282.024 156.053C284.162 152.937 285.98 149.646 287.457 146.221C296.23 125.853 295.941 98.0497 286.277 77.9743C278.614 61.9898 264.596 47.8106 246.516 41.668C213.672 30.5104 179.13 45.9149 166.977 75.8562C158.175 97.5443 159.498 122.423 169.42 143.268C173.152 151.195 177.926 157.069 184.549 163.046C191.867 158.607 199.63 154.557 207.007 150.168C211.392 147.559 215.824 145.233 219.933 142.215C232.685 148.549 245.199 156.46 257.465 163.162C272.484 171.367 286.198 181.199 304.733 178.363C305.296 178.276 305.922 178.321 306.341 178.684C305.992 181.597 298.521 182.857 295.906 183.158C286.407 184.248 274.805 184.609 265.51 182.192C259.766 180.699 251.854 174.503 246.488 171.84C236.69 165.787 225.809 159.521 216.258 153.201L193.961 165.755C191.285 167.265 178.947 174.502 176.676 175.001C174.522 174.521 171.144 171.739 169.342 170.372C151.056 156.5 142.188 138.194 140.331 116.573C138.304 95.3231 145.654 74.2167 160.725 58.0106C176.031 41.551 197.788 32.7717 221.007 31.1189Z" fill="url(#paint0_linear_28_161)"/>
<path d="M209.296 175.112C211.435 174.958 212.819 174.987 214.948 175.055C214.97 176.382 215.095 178.726 214.854 179.958L209.01 180C209.028 178.637 208.885 176.299 209.296 175.112Z" fill="#F52C22"/>
<path d="M209.042 167.064C210.947 166.951 213.062 167.018 214.985 167.038C215.016 169.138 215.004 170.814 214.901 172.915C212.781 173.061 211.151 172.991 209.042 172.911C208.96 171.004 209.019 168.982 209.042 167.064Z" fill="#F52C22"/>
<path d="M217.169 175.073C222.522 174.847 223.706 174.827 222.647 180C220.775 179.998 218.875 179.961 217 179.94C217.204 178.743 217.154 176.367 217.169 175.073Z" fill="#F52C22"/>
<path d="M217 167.033L222.969 167C223.034 169.005 222.985 170.837 222.933 172.836L222.658 172.873C220.913 173.118 218.859 172.947 217.075 172.871C217.084 170.925 217.059 168.978 217 167.033Z" fill="#F52C22"/>
<path d="M394.304 194C394.078 195.977 393.909 197.898 393.796 199.763C393.739 201.627 393.711 203.04 393.711 204C393.711 205.017 393.739 206.006 393.796 206.966C393.852 207.87 393.909 208.633 393.965 209.254H392.015C391.676 205.921 391.196 203.294 390.574 201.373C389.952 199.395 388.879 198.011 387.353 197.22C385.883 196.373 383.651 195.949 380.655 195.949H373.618C371.697 195.949 370.227 196.119 369.21 196.458C368.249 196.74 367.599 197.39 367.26 198.407C366.921 199.367 366.751 200.893 366.751 202.983V245.017C366.751 247.051 366.921 248.576 367.26 249.593C367.599 250.61 368.249 251.288 369.21 251.627C370.227 251.91 371.697 252.051 373.618 252.051H379.807C383.368 252.051 386.053 251.571 387.861 250.61C389.726 249.65 391.055 248.096 391.846 245.949C392.694 243.746 393.315 240.78 393.711 237.051H395.661C395.491 238.576 395.407 240.61 395.407 243.153C395.407 244.226 395.435 245.78 395.491 247.814C395.604 249.791 395.774 251.853 396 254C393.118 253.887 389.868 253.831 386.25 253.831C382.633 253.774 379.412 253.746 376.586 253.746C375.342 253.746 373.732 253.746 371.753 253.746C369.832 253.746 367.741 253.774 365.48 253.831C363.219 253.831 360.93 253.859 358.613 253.915C356.295 253.915 354.091 253.944 352 254V252.305C353.922 252.192 355.363 251.966 356.324 251.627C357.341 251.288 358.019 250.61 358.358 249.593C358.697 248.576 358.867 247.051 358.867 245.017V202.983C358.867 200.893 358.697 199.367 358.358 198.407C358.019 197.39 357.341 196.712 356.324 196.373C355.363 195.977 353.922 195.751 352 195.695V194C354.091 194.056 356.295 194.113 358.613 194.169C360.93 194.169 363.219 194.198 365.48 194.254C367.741 194.254 369.832 194.254 371.753 194.254C373.732 194.254 375.342 194.254 376.586 194.254C379.186 194.254 382.125 194.254 385.403 194.254C388.737 194.198 391.705 194.113 394.304 194ZM379.723 222.983C379.723 222.983 379.723 223.266 379.723 223.831C379.723 224.395 379.723 224.678 379.723 224.678H364.208C364.208 224.678 364.208 224.395 364.208 223.831C364.208 223.266 364.208 222.983 364.208 222.983H379.723ZM382.181 211.797C381.955 215.017 381.842 217.475 381.842 219.169C381.899 220.864 381.927 222.418 381.927 223.831C381.927 225.243 381.955 226.797 382.012 228.492C382.068 230.186 382.209 232.644 382.435 235.864H380.486C380.259 234.056 379.977 232.305 379.638 230.61C379.355 228.859 378.677 227.446 377.603 226.373C376.586 225.243 374.834 224.678 372.347 224.678V222.983C374.212 222.983 375.625 222.616 376.586 221.881C377.603 221.09 378.338 220.102 378.79 218.915C379.242 217.729 379.553 216.514 379.723 215.271C379.892 213.972 380.062 212.814 380.231 211.797H382.181Z" fill="#288445"/>
<path d="M312.337 193C316.119 193 319.214 193.562 321.621 194.685C324.085 195.752 326.263 197.015 328.154 198.476C329.301 199.318 330.16 199.43 330.733 198.813C331.364 198.139 331.794 196.594 332.023 194.179H334C333.885 196.257 333.799 198.784 333.742 201.761C333.685 204.737 333.656 208.668 333.656 213.554H331.679C331.278 211.139 330.905 209.23 330.561 207.826C330.218 206.366 329.788 205.13 329.272 204.12C328.813 203.109 328.183 202.098 327.381 201.087C325.604 198.784 323.369 197.128 320.675 196.117C317.982 195.05 315.145 194.516 312.165 194.516C309.357 194.516 306.806 195.218 304.514 196.622C302.279 197.97 300.33 199.936 298.668 202.519C297.064 205.102 295.803 208.219 294.886 211.87C294.026 215.52 293.596 219.62 293.596 224.168C293.596 228.886 294.084 233.07 295.058 236.72C296.032 240.314 297.379 243.347 299.098 245.818C300.875 248.289 302.938 250.17 305.288 251.462C307.695 252.697 310.274 253.315 313.025 253.315C315.604 253.315 318.297 252.81 321.105 251.799C323.913 250.788 326.12 249.159 327.725 246.913C328.985 245.284 329.845 243.515 330.303 241.606C330.819 239.697 331.278 237.029 331.679 233.603H333.656C333.656 238.714 333.685 242.841 333.742 245.986C333.799 249.075 333.885 251.687 334 253.821H332.023C331.794 251.406 331.392 249.889 330.819 249.272C330.304 248.654 329.415 248.738 328.154 249.524C326.034 250.985 323.77 252.276 321.363 253.399C319.013 254.466 315.976 255 312.251 255C306.806 255 302.021 253.793 297.895 251.378C293.826 248.963 290.645 245.481 288.353 240.932C286.118 236.383 285 230.908 285 224.505C285 218.216 286.175 212.712 288.525 207.995C290.874 203.277 294.084 199.599 298.153 196.959C302.279 194.32 307.007 193 312.337 193Z" fill="#288445"/>
<path d="M245.74 194L266.991 246.931C267.862 249.063 268.849 250.494 269.952 251.223C271.055 251.896 272.071 252.261 273 252.317V254C271.839 253.888 270.416 253.832 268.732 253.832C267.049 253.776 265.365 253.748 263.681 253.748C261.417 253.748 259.298 253.776 257.323 253.832C255.349 253.832 253.753 253.888 252.533 254V252.317C255.495 252.205 257.382 251.728 258.194 250.886C259.007 249.989 258.833 248.109 257.672 245.248L241.473 203.425L242.866 202.331L227.712 240.367C226.783 242.611 226.232 244.519 226.058 246.09C225.883 247.604 226.029 248.811 226.493 249.708C227.016 250.606 227.857 251.251 229.019 251.644C230.238 252.036 231.748 252.261 233.547 252.317V254C231.922 253.888 230.209 253.832 228.409 253.832C226.667 253.776 225.041 253.748 223.532 253.748C222.08 253.748 220.832 253.776 219.787 253.832C218.8 253.832 217.871 253.888 217 254V252.317C218.161 252.036 219.351 251.391 220.571 250.381C221.79 249.316 222.893 247.52 223.88 244.996L244.347 194C244.579 194 244.811 194 245.044 194C245.276 194 245.508 194 245.74 194ZM256.365 229.764V231.447H230.412L231.283 229.764H256.365Z" fill="#288445"/>
<path d="M166 194C167.198 194.056 168.768 194.113 170.708 194.169C172.649 194.226 174.56 194.254 176.444 194.254C179.126 194.254 181.694 194.226 184.148 194.169C186.602 194.113 188.342 194.085 189.37 194.085C196.275 194.085 201.44 195.638 204.864 198.746C208.288 201.853 210 205.864 210 210.78C210 212.814 209.658 214.96 208.973 217.22C208.288 219.424 207.089 221.486 205.377 223.407C203.722 225.271 201.44 226.797 198.529 227.983C195.619 229.169 191.938 229.763 187.486 229.763H179.268V228.068H186.63C190.682 228.068 193.764 227.305 195.875 225.78C198.044 224.254 199.499 222.249 200.241 219.763C201.04 217.277 201.44 214.593 201.44 211.712C201.44 206.345 200.355 202.333 198.187 199.678C196.075 197.023 192.423 195.695 187.23 195.695C184.604 195.695 182.892 196.175 182.093 197.136C181.294 198.096 180.895 200.045 180.895 202.983V245.017C180.895 247.051 181.095 248.576 181.494 249.593C181.951 250.61 182.807 251.288 184.062 251.627C185.318 251.966 187.144 252.192 189.541 252.305V254C188.057 253.887 186.174 253.831 183.891 253.831C181.608 253.774 179.297 253.746 176.957 253.746C174.732 253.746 172.649 253.774 170.708 253.831C168.768 253.831 167.198 253.887 166 254V252.305C167.94 252.192 169.396 251.966 170.366 251.627C171.393 251.288 172.078 250.61 172.42 249.593C172.763 248.576 172.934 247.051 172.934 245.017V202.983C172.934 200.893 172.763 199.367 172.42 198.407C172.078 197.39 171.393 196.712 170.366 196.373C169.396 195.977 167.94 195.751 166 195.695V194Z" fill="#288445"/>
<path d="M129.234 193C132.037 193 134.168 193.338 135.626 194.015C137.084 194.635 138.374 195.34 139.495 196.13C140.168 196.524 140.701 196.834 141.093 197.06C141.542 197.229 141.963 197.314 142.355 197.314C142.916 197.314 143.308 197.004 143.533 196.383C143.813 195.763 144.037 194.833 144.206 193.592H146.14C146.084 194.551 146 195.707 145.888 197.06C145.832 198.357 145.776 200.105 145.72 202.304C145.72 204.447 145.72 207.295 145.72 210.847H143.785C143.617 208.141 143.028 205.547 142.019 203.065C141.009 200.584 139.523 198.554 137.561 196.975C135.654 195.397 133.131 194.607 129.991 194.607C127.019 194.607 124.551 195.509 122.589 197.314C120.682 199.118 119.729 201.487 119.729 204.419C119.729 206.956 120.374 209.099 121.664 210.847C122.953 212.539 124.664 214.09 126.794 215.499C128.981 216.853 131.336 218.319 133.86 219.898C136.776 221.702 139.355 223.507 141.598 225.311C143.897 227.059 145.692 229.005 146.981 231.147C148.327 233.29 149 235.884 149 238.929C149 242.538 148.187 245.527 146.561 247.895C144.935 250.263 142.776 252.04 140.084 253.224C137.393 254.408 134.421 255 131.168 255C128.196 255 125.841 254.662 124.103 253.985C122.364 253.308 120.879 252.603 119.645 251.87C118.411 251.081 117.458 250.686 116.785 250.686C116.224 250.686 115.804 250.996 115.523 251.617C115.299 252.237 115.103 253.167 114.935 254.408H113C113.112 253.224 113.168 251.842 113.168 250.263C113.224 248.628 113.252 246.513 113.252 243.92C113.308 241.326 113.336 238.055 113.336 234.108H115.271C115.495 237.491 116.112 240.649 117.121 243.581C118.187 246.513 119.785 248.882 121.916 250.686C124.103 252.434 126.991 253.308 130.579 253.308C132.43 253.308 134.168 252.942 135.794 252.209C137.477 251.419 138.85 250.207 139.916 248.572C140.981 246.88 141.514 244.709 141.514 242.059C141.514 239.747 140.953 237.745 139.832 236.053C138.766 234.305 137.252 232.698 135.29 231.232C133.327 229.709 131.028 228.159 128.393 226.58C125.757 224.945 123.29 223.281 120.991 221.589C118.692 219.898 116.841 217.952 115.439 215.753C114.093 213.498 113.421 210.791 113.421 207.633C113.421 204.306 114.15 201.571 115.607 199.428C117.122 197.229 119.084 195.622 121.495 194.607C123.907 193.536 126.486 193 129.234 193Z" fill="#288445"/>
<path d="M69.7078 192C71.841 192 74.0851 192.221 76.44 192.662C78.8226 193.104 81.1636 193.835 83.4631 194.856C85.7902 195.85 88.0066 197.175 90.1121 198.831C92.2454 200.459 94.1154 202.46 95.7223 204.833C97.3292 207.207 98.6036 209.98 99.5455 213.154C100.515 216.328 101 219.971 101 224.083C101 228.223 100.529 231.893 99.5871 235.094C98.6451 238.268 97.3707 241.042 95.7639 243.415C94.157 245.761 92.2869 247.748 90.1537 249.376C88.0482 250.977 85.8179 252.274 83.4631 253.268C81.1359 254.234 78.7533 254.924 76.3153 255.338C73.8773 255.779 71.5501 256 69.3338 256C67.2282 256 64.9842 255.779 62.6016 255.338C60.2467 254.924 57.9057 254.234 55.5785 253.268C53.2513 252.274 51.0211 250.977 48.8879 249.376C46.7823 247.748 44.9123 245.761 43.2777 243.415C41.6708 241.042 40.3826 238.268 39.4129 235.094C38.471 231.893 38 228.223 38 224.083C38 219.833 38.4987 216.093 39.496 212.864C40.4934 209.608 41.8094 206.793 43.4439 204.419C45.1062 202.046 47.0178 200.072 49.1788 198.499C51.3674 196.899 53.6253 195.615 55.9525 194.649C58.3074 193.683 60.6623 193.007 63.0171 192.621C65.3997 192.207 67.6299 192 69.7078 192ZM69.5 194.981C66.8958 194.981 64.5825 195.408 62.56 196.264C60.5376 197.119 58.7645 198.279 57.2408 199.741C55.717 201.176 54.4288 202.86 53.376 204.792C52.3232 206.696 51.4644 208.724 50.7995 210.877C50.1623 213.03 49.6913 215.238 49.3865 217.501C49.1095 219.764 48.971 221.958 48.971 224.083C48.971 226.125 49.1095 228.25 49.3865 230.458C49.6636 232.666 50.1207 234.846 50.7579 236.999C51.3951 239.124 52.2263 241.152 53.2513 243.084C54.3041 245.016 55.5923 246.713 57.1161 248.176C58.6398 249.639 60.4129 250.812 62.4354 251.695C64.4855 252.55 66.8404 252.978 69.5 252.978C72.1042 252.978 74.4175 252.564 76.44 251.736C78.4624 250.881 80.2355 249.735 81.7592 248.3C83.283 246.837 84.5574 245.154 85.5825 243.25C86.6352 241.318 87.4802 239.289 88.1174 237.164C88.7823 235.012 89.2533 232.818 89.5303 230.582C89.8351 228.347 89.9875 226.18 89.9875 224.083C89.9875 221.958 89.8351 219.764 89.5303 217.501C89.2533 215.238 88.7823 213.03 88.1174 210.877C87.4802 208.724 86.6352 206.696 85.5825 204.792C84.5297 202.86 83.2414 201.176 81.7177 199.741C80.1939 198.279 78.4208 197.119 76.3984 196.264C74.376 195.408 72.0765 194.981 69.5 194.981Z" fill="#F52C22"/>
<path d="M388 265V283H385.423L375.976 269.799H375.804V283H373V265H375.595L385.051 278.219H385.223V265H388Z" fill="#05188D"/>
<path d="M357 283V265H367.898V267.338H359.623V272.822H367.329V275.151H359.623V280.662H368V283H357Z" fill="#05188D"/>
<path d="M333 265H336.248L341.896 278.992H342.104L347.752 265H351V283H348.453V269.975H348.289L343.057 282.974H340.943L335.711 269.966H335.547V283H333V265Z" fill="#05188D"/>
<path d="M316 283V265H327.889V267.338H318.861V272.822H327.269V275.151H318.861V280.662H328V283H316Z" fill="#05188D"/>
<path d="M309.03 271.096C308.856 270.548 308.623 270.057 308.33 269.624C308.043 269.184 307.699 268.811 307.298 268.504C306.897 268.191 306.439 267.953 305.925 267.79C305.416 267.628 304.857 267.547 304.247 267.547C303.212 267.547 302.279 267.814 301.447 268.35C300.615 268.886 299.957 269.672 299.473 270.707C298.994 271.737 298.755 272.998 298.755 274.491C298.755 275.99 298.997 277.257 299.482 278.293C299.966 279.328 300.63 280.114 301.474 280.65C302.317 281.186 303.278 281.453 304.354 281.453C305.354 281.453 306.224 281.249 306.966 280.839C307.714 280.43 308.291 279.852 308.698 279.106C309.11 278.353 309.317 277.468 309.317 276.451L310.035 276.586H304.776V274.283H312V276.387C312 277.941 311.671 279.289 311.013 280.433C310.361 281.571 309.457 282.45 308.303 283.07C307.154 283.69 305.838 284 304.354 284C302.691 284 301.232 283.615 299.975 282.844C298.725 282.074 297.75 280.981 297.05 279.566C296.35 278.145 296 276.46 296 274.509C296 273.034 296.203 271.71 296.61 270.536C297.017 269.362 297.588 268.365 298.324 267.547C299.066 266.722 299.936 266.093 300.936 265.659C301.941 265.22 303.038 265 304.229 265C305.222 265 306.146 265.147 307.002 265.442C307.863 265.737 308.629 266.156 309.299 266.698C309.975 267.24 310.534 267.884 310.977 268.63C311.42 269.371 311.719 270.192 311.874 271.096H309.03Z" fill="#05188D"/>
<path d="M279.866 283H277L283.44 265H286.56L293 283H290.134L285.074 268.27H284.934L279.866 283ZM280.347 275.951H289.644V278.236H280.347V275.951Z" fill="#05188D"/>
<path d="M273 265V283H270.423L260.976 269.799H260.804V283H258V265H260.595L270.051 278.219H270.223V265H273Z" fill="#05188D"/>
<path d="M240.866 283H238L244.44 265H247.56L254 283H251.134L246.074 268.27H245.934L240.866 283ZM241.347 275.951H250.644V278.236H241.347V275.951Z" fill="#05188D"/>
<path d="M215 265H218.429L224.39 278.992H224.61L230.571 265H234V283H231.312V269.975H231.138L225.615 282.974H223.385L217.862 269.966H217.688V283H215V265Z" fill="#05188D"/>
<path d="M200.005 270.097C199.907 269.244 199.503 268.584 198.793 268.116C198.082 267.641 197.188 267.404 196.11 267.404C195.339 267.404 194.671 267.524 194.108 267.764C193.544 267.999 193.106 268.323 192.794 268.737C192.488 269.145 192.335 269.61 192.335 270.133C192.335 270.571 192.439 270.949 192.647 271.267C192.861 271.585 193.14 271.853 193.483 272.069C193.832 272.279 194.206 272.456 194.604 272.6C195.002 272.738 195.385 272.852 195.752 272.942L197.589 273.41C198.189 273.555 198.805 273.75 199.436 273.996C200.067 274.242 200.651 274.566 201.19 274.968C201.729 275.37 202.164 275.869 202.495 276.463C202.832 277.057 203 277.769 203 278.597C203 279.642 202.724 280.569 202.173 281.38C201.628 282.19 200.835 282.829 199.794 283.298C198.759 283.766 197.507 284 196.037 284C194.628 284 193.409 283.781 192.381 283.343C191.352 282.904 190.546 282.283 189.965 281.479C189.383 280.668 189.061 279.708 189 278.597H191.848C191.903 279.264 192.123 279.819 192.509 280.263C192.901 280.701 193.4 281.028 194.007 281.245C194.619 281.455 195.29 281.56 196.018 281.56C196.821 281.56 197.534 281.437 198.159 281.191C198.79 280.938 199.286 280.59 199.647 280.146C200.008 279.696 200.189 279.17 200.189 278.57C200.189 278.024 200.03 277.577 199.711 277.228C199.399 276.88 198.973 276.592 198.434 276.364C197.902 276.136 197.298 275.935 196.625 275.761L194.402 275.166C192.895 274.764 191.701 274.173 190.819 273.392C189.943 272.612 189.505 271.579 189.505 270.295C189.505 269.232 189.799 268.305 190.387 267.512C190.975 266.72 191.771 266.105 192.776 265.666C193.78 265.222 194.913 265 196.175 265C197.448 265 198.572 265.219 199.546 265.657C200.526 266.096 201.297 266.699 201.861 267.467C202.424 268.23 202.718 269.106 202.743 270.097H200.005Z" fill="#05188D"/>
<path d="M174 283V265H184.898V267.338H176.623V272.822H184.329V275.151H176.623V280.662H185V283H174Z" fill="#05188D"/>
<path d="M168 265V283H166V265H168Z" fill="#05188D"/>
<path d="M147 267.338V265H161V267.338H155.356V283H152.635V267.338H147Z" fill="#05188D"/>
<path d="M389 267.338V265H403V267.338H397.356V283H394.635V267.338H389Z" fill="#05188D"/>
<path d="M130 283V265H136.737C138.201 265 139.416 265.24 140.382 265.721C141.354 266.201 142.08 266.866 142.56 267.716C143.04 268.56 143.28 269.535 143.28 270.643C143.28 271.744 143.037 272.714 142.551 273.552C142.071 274.384 141.345 275.031 140.373 275.494C139.407 275.957 138.192 276.188 136.728 276.188H131.624V273.851H136.469C137.392 273.851 138.143 273.725 138.721 273.473C139.306 273.221 139.733 272.854 140.004 272.374C140.275 271.894 140.41 271.316 140.41 270.643C140.41 269.963 140.272 269.374 139.995 268.876C139.724 268.378 139.296 267.997 138.712 267.733C138.134 267.464 137.374 267.329 136.432 267.329H132.852V283H130ZM139.33 274.879L144 283H140.751L136.174 274.879H139.33Z" fill="#05188D"/>
<path d="M114 283V265H125.889V267.338H116.861V272.822H125.269V275.151H116.861V280.662H126V283H114Z" fill="#05188D"/>
<path d="M97 283V265H103.088C104.416 265 105.517 265.255 106.39 265.765C107.263 266.274 107.916 266.972 108.35 267.856C108.783 268.735 109 269.726 109 270.827C109 271.935 108.78 272.931 108.341 273.815C107.908 274.694 107.252 275.392 106.373 275.907C105.5 276.417 104.402 276.672 103.079 276.672H98.893V274.369H102.846C103.685 274.369 104.366 274.217 104.889 273.912C105.411 273.602 105.795 273.18 106.04 272.646C106.284 272.113 106.407 271.507 106.407 270.827C106.407 270.147 106.284 269.544 106.04 269.017C105.795 268.489 105.409 268.076 104.88 267.777C104.358 267.479 103.669 267.329 102.812 267.329H99.5768V283H97Z" fill="#05188D"/>
<path d="M92 274.5C92 276.475 91.6314 278.172 90.8943 279.593C90.1572 281.008 89.1467 282.098 87.8629 282.862C86.5852 283.621 85.1324 284 83.5046 284C81.8706 284 80.4117 283.621 79.1279 282.862C77.8502 282.098 76.8428 281.005 76.1057 279.584C75.3686 278.163 75 276.469 75 274.5C75 272.525 75.3686 270.831 76.1057 269.416C76.8428 267.995 77.8502 266.905 79.1279 266.147C80.4117 265.382 81.8706 265 83.5046 265C85.1324 265 86.5852 265.382 87.8629 266.147C89.1467 266.905 90.1572 267.995 90.8943 269.416C91.6314 270.831 92 272.525 92 274.5ZM89.1805 274.5C89.1805 272.995 88.9317 271.728 88.4341 270.698C87.9427 269.663 87.267 268.88 86.407 268.35C85.5532 267.814 84.5857 267.547 83.5046 267.547C82.4173 267.547 81.4468 267.814 80.593 268.35C79.7391 268.88 79.0634 269.663 78.5659 270.698C78.0744 271.728 77.8287 272.995 77.8287 274.5C77.8287 276.005 78.0744 277.275 78.5659 278.311C79.0634 279.34 79.7391 280.123 80.593 280.659C81.4468 281.189 82.4173 281.453 83.5046 281.453C84.5857 281.453 85.5532 281.189 86.407 280.659C87.267 280.123 87.9427 279.34 88.4341 278.311C88.9317 277.275 89.1805 276.005 89.1805 274.5Z" fill="#05188D"/>
<path d="M59 283V265H65.2558C66.6155 265 67.7438 265.24 68.6407 265.721C69.5434 266.201 70.2175 266.866 70.6632 267.716C71.1088 268.56 71.3316 269.535 71.3316 270.643C71.3316 271.744 71.1059 272.714 70.6546 273.552C70.209 274.384 69.5348 275.031 68.6322 275.494C67.7352 275.957 66.6069 276.188 65.2472 276.188H60.5082V273.851H65.0073C65.8642 273.851 66.5612 273.725 67.0982 273.473C67.641 273.221 68.038 272.854 68.2894 272.374C68.5408 271.894 68.6664 271.316 68.6664 270.643C68.6664 269.963 68.5379 269.374 68.2808 268.876C68.0294 268.378 67.6324 267.997 67.0897 267.733C66.5526 267.464 65.8471 267.329 64.973 267.329H61.648V283H59ZM67.6638 274.879L72 283H68.9835L64.733 274.879H67.6638Z" fill="#05188D"/>
<path d="M41 283V265H47.5949C49.0343 265 50.2268 265.255 51.1723 265.765C52.1179 266.274 52.8256 266.972 53.2953 267.856C53.7651 268.735 54 269.726 54 270.827C54 271.935 53.7621 272.931 53.2863 273.815C52.8165 274.694 52.1059 275.392 51.1543 275.907C50.2087 276.417 49.0192 276.672 47.5858 276.672H43.0507V274.369H47.3329C48.2423 274.369 48.9801 274.217 49.5462 273.912C50.1123 273.602 50.5279 273.18 50.7929 272.646C51.0579 272.113 51.1904 271.507 51.1904 270.827C51.1904 270.147 51.0579 269.544 50.7929 269.017C50.5279 268.489 50.1093 268.076 49.5372 267.777C48.971 267.479 48.2242 267.329 47.2967 267.329H43.7915V283H41Z" fill="#05188D"/>
<path d="M410 274.277C411.389 273.959 420.662 273.745 421.93 274.622L422 275.431C420.107 275.834 411.691 276.501 410.192 275.387L410 274.277Z" fill="#05188D"/>
<path d="M23 274.277C24.3889 273.959 33.6623 273.745 34.9295 274.622L35 275.431C33.1066 275.834 24.6906 276.501 23.1924 275.387L23 274.277Z" fill="#05188D"/>
<defs>
<linearGradient id="paint0_linear_28_161" x1="286.805" y1="133.409" x2="217.902" y2="155.662" gradientUnits="userSpaceOnUse">
<stop stop-color="#288445"/>
<stop offset="1" stop-color="#05188D"/>
</linearGradient>
</defs>
</svg>
