<svg width="174" height="153" viewBox="0 0 174 153" fill="none" xmlns="http://www.w3.org/2000/svg">
<g clip-path="url(#clip0_71_20)">
<path d="M114.15 67C121.076 72.3715 128.553 77.151 135.602 82.2506C136.04 84.3399 135.98 98.2189 135.906 101.474C135.662 112.346 136.292 124.284 135.817 135C130.296 132.022 124.942 128.784 119.515 125.659C117.691 124.609 115.861 123.573 114.158 122.353C113.862 109.89 114.316 97.2794 114.09 84.8019C113.982 78.9117 113.938 72.8771 114.15 67Z" fill="black"/>
<path d="M88.2175 24C89.6535 24.6851 97.9206 30.2444 99.7626 31.4993C103.784 34.2373 110.141 37.6231 113.692 40.329C114.231 45.2769 113.899 56.2628 113.896 61.7604C111.389 59.9811 108.678 58.1263 106.343 56.185C103.986 57.3203 100.286 59.6842 97.768 61.0805C97.3021 72.4559 97.6481 86.0057 97.6372 97.4922V114C95.234 112.42 90.9151 110.223 88.2448 108.779C87.7598 80.9653 88.1303 51.8894 88.2175 24Z" fill="#288445"/>
<path d="M82.5683 37C82.7713 37.0679 82.815 37.1521 82.9974 37.3114L83 106.648C81.6508 106.127 81.1803 105.848 79.9524 105.125C78.4423 106.161 76.7701 107.082 75.1752 108C75.3726 105.575 75.2104 100.821 75.205 98.2225L75.1778 73.3882C75.1734 69.7211 75.3664 63.4177 74.9999 60.0034C73.9095 59.9607 68.5079 63.6082 67.0538 64.4935C66.978 59.1176 66.9824 53.741 67.0664 48.3653C71.5023 45.3043 78.449 40.3615 82.5683 37Z" fill="#288445"/>
<path d="M105.951 62C107.114 62.3801 108.975 63.8934 110 64.6697C109.843 81.0049 109.958 97.3355 109.421 113.673C109.36 115.593 109.57 117.781 109.328 119.647L108.848 120C106.888 119.035 105.096 117.986 103.214 116.904C102.638 103.813 103.445 90.2671 103.121 77.1241C103.015 72.8346 103.015 67.9514 103.296 63.678C104.077 63.1452 105.133 62.515 105.951 62Z" fill="black"/>
<path d="M56.374 76C57.036 76.83 56.692 87.1714 56.7466 88.9703C57.0434 98.7297 56.3391 108.967 57 118.695C55.4422 119.726 53.1578 121.018 51.5114 122C51.4244 121.977 51.1882 121.774 51.1031 121.708L51 79.6097C52.8002 78.418 54.5918 77.2148 56.374 76Z" fill="black"/>
<path d="M63.6193 72L63.7759 72.1189C64.3643 73.3173 63.6083 110.726 63.6036 115.261C62.0665 116.159 60.0259 117.168 58.4064 118C57.9289 115.33 58.1316 106.925 58.1241 103.804L58 75.3751L63.6193 72Z" fill="black"/>
<path d="M69.7105 68C70.2521 69.7454 69.8645 106.456 69.8806 110.772C68.7909 111.523 67.387 112.312 66.2309 113C65.9885 99.068 66.5484 84.5121 66 70.6632C66.8834 69.8935 68.6962 68.7076 69.7105 68Z" fill="black"/>
<path d="M49.6252 81C50.185 81.6175 49.9378 118.29 49.9859 122.768L46.4095 125C46.3788 124.972 46.3427 124.95 46.3175 124.917C45.7742 124.212 46.0853 87.404 46.1199 83.3803C47.2935 82.5945 48.4619 81.8011 49.6252 81Z" fill="black"/>
<path d="M89 37V109L83 105.446L83.4038 37H89ZM83.8029 104.921L88.2002 107.527V37.8798H84.1989L83.8029 104.921Z" fill="black"/>
<path d="M83 37H89V106H83V37Z" fill="black"/>
<path d="M88 106.4V108L85 106L88 106.4Z" fill="black"/>
<path d="M81.0067 0.118917C84.865 -0.0143077 88.726 -0.035591 92.5843 0.055062C141.077 1.37379 176.376 36.1397 173.875 80.4093C172.604 102.904 163.704 121.25 145.942 136.597C142.943 134.656 140.827 132.546 138.62 129.89C139.442 128.541 141.055 126.476 142.024 125.053C144.162 121.937 145.98 118.646 147.457 115.221C156.23 94.8531 155.941 67.0497 146.277 46.9743C138.614 30.9898 124.596 16.8106 106.516 10.668C73.6721 -0.48961 39.1296 14.9149 26.9773 44.8562C18.1748 66.5443 19.4977 91.4226 29.4199 112.268C33.1525 120.195 37.9261 126.069 44.5488 132.046C51.8674 127.607 59.6296 123.557 67.0066 119.168C71.3917 116.559 75.8236 114.233 79.9327 111.215C92.6849 117.549 105.199 125.46 117.465 132.162C132.484 140.367 146.198 150.199 164.733 147.363C165.296 147.276 165.922 147.321 166.341 147.684C165.992 150.597 158.521 151.857 155.906 152.158C146.407 153.248 134.805 153.609 125.51 151.192C119.766 149.699 111.854 143.503 106.488 140.84C96.6902 134.787 85.8092 128.521 76.2584 122.201L53.9614 134.755C51.2845 136.265 38.947 143.502 36.6764 144.001C34.5222 143.521 31.1444 140.739 29.3418 139.372C11.0563 125.5 2.18847 107.194 0.330617 85.5727C-1.69594 64.3231 5.65413 43.2167 20.7249 27.0106C36.031 10.551 57.7881 1.77171 81.0067 0.118917Z" fill="url(#paint0_linear_71_20)"/>
<path d="M69.2958 144.112C71.4355 143.958 72.8193 143.987 74.9479 144.055C74.97 145.382 75.0951 147.726 74.8542 148.958L69.0104 149C69.0279 147.637 68.8848 145.299 69.2958 144.112Z" fill="#F52C22"/>
<path d="M69.0417 136.064C70.9467 135.951 73.0616 136.018 74.9852 136.038C75.016 138.138 75.0036 139.814 74.901 141.915C72.7807 142.061 71.1509 141.991 69.042 141.911C68.9603 140.004 69.019 137.982 69.0417 136.064Z" fill="#F52C22"/>
<path d="M77.1688 144.073C82.5224 143.847 83.7059 143.827 82.6472 149C80.7746 148.998 78.8749 148.961 77 148.94C77.2037 147.743 77.1538 145.367 77.1688 144.073Z" fill="#F52C22"/>
<path d="M77 136.033L82.969 136C83.0339 138.005 82.9846 139.837 82.9327 141.836L82.6575 141.873C80.9131 142.118 78.8592 141.947 77.0753 141.871C77.0836 139.925 77.0587 137.978 77 136.033Z" fill="#F52C22"/>
</g>
<defs>
<linearGradient id="paint0_linear_71_20" x1="146.805" y1="102.409" x2="77.902" y2="124.662" gradientUnits="userSpaceOnUse">
<stop stop-color="#288445"/>
<stop offset="1" stop-color="#05188D"/>
</linearGradient>
<clipPath id="clip0_71_20">
<rect width="174" height="153" fill="white"/>
</clipPath>
</defs>
</svg>
